<svg width="98" height="38" viewBox="0 0 98 38" fill="none" xmlns="http://www.w3.org/2000/svg">
<g clip-path="url(#clip0_16179_559)">
<path fill-rule="evenodd" clip-rule="evenodd" d="M19.8131 0.567566C30.0408 0.567566 38.3249 8.81608 38.3249 19C38.3249 29.1839 30.0408 37.4324 19.8131 37.4324C9.5853 37.4324 1.30127 29.1839 1.30127 19C1.30127 8.81608 9.5853 0.567566 19.8131 0.567566ZM19.8131 22.6312C16.6753 22.6312 14.1207 25.1656 14.1207 28.2992C14.1207 28.5204 14.1299 28.7415 14.1577 28.9627C15.8701 29.9673 17.8231 30.4926 19.8038 30.4926C21.8679 30.4926 23.8024 29.9304 25.4499 28.9627C25.8109 25.8569 23.5802 23.0367 20.461 22.6773C20.2388 22.6496 20.0167 22.6404 19.8038 22.6404L19.8131 22.6312ZM19.8131 8.28154C13.6486 8.28154 8.65971 13.2491 8.65971 19.3871C8.65971 21.2303 9.11325 22.9722 9.90926 24.5021L19.8131 9.57181L29.7909 24.3546C30.5684 22.8155 30.9664 21.1105 30.9664 19.3871C30.9664 13.2583 25.9775 8.28154 19.8131 8.28154Z" fill="#8492A5"/>
<path d="M54.3728 5.74726C54.2994 5.52823 54.0915 5.3822 53.8591 5.40654H51.9876C51.7551 5.39437 51.5594 5.54039 51.486 5.74726L45.8226 20.0939C45.7125 20.386 45.847 20.5928 46.1651 20.5928H48.2934C48.5381 20.5928 48.7093 20.4711 48.7827 20.2521L49.7246 17.7089H56.0853L57.0394 20.2521C57.1128 20.4833 57.2718 20.5928 57.5287 20.5928H59.6693C59.9874 20.5928 60.1097 20.386 60.0118 20.0939L54.3728 5.74726ZM52.7826 9.39781L52.9172 8.8989L53.064 9.39781L55.2168 15.19H50.642L52.7949 9.39781H52.7826ZM67.5469 20.9092C69.3327 20.9092 70.874 20.3129 72.036 19.3516C72.2073 19.2056 72.2073 19.0109 72.0605 18.7919L71.1431 17.4899C70.9719 17.2587 70.7639 17.2343 70.5315 17.4047C69.7364 18.0131 68.8435 18.3782 67.6814 18.3782C65.4674 18.3782 63.5836 16.5894 63.5836 14.1679C63.5836 11.7463 65.4552 9.92105 67.6692 9.92105C68.8312 9.92105 69.7242 10.2983 70.5193 10.8945C70.7517 11.0771 70.9596 11.0527 71.1309 10.8215L72.0605 9.51949C72.2073 9.30046 72.1951 9.0936 71.9871 8.91107C70.8251 7.97409 69.3205 7.40217 67.5591 7.40217C63.657 7.40217 60.8069 10.4321 60.8069 14.1679C60.8069 17.9036 63.6693 20.9214 67.5469 20.9214V20.9092ZM78.776 10.1888H81.1368C81.4181 10.1888 81.5771 10.0427 81.5771 9.76286V8.0471C81.5771 7.76723 81.4303 7.60904 81.1368 7.60904H78.7882V4.8833C78.7882 4.59125 78.6047 4.44523 78.3111 4.4939L76.3662 4.84679C76.1094 4.89546 75.9748 5.06582 75.9748 5.32136V7.60904H74.6293C74.3479 7.60904 74.2011 7.75506 74.2011 8.03494V9.75069C74.2011 10.0306 74.3479 10.1888 74.6415 10.1888H75.9993V20.1669C75.9993 20.4468 76.146 20.5928 76.4396 20.5928H78.3601C78.6414 20.5928 78.8004 20.4468 78.8004 20.1669V10.1888H78.776ZM93.479 9.22745C92.5983 8.14445 91.3139 7.39001 89.528 7.39001C85.8706 7.39001 83.0327 10.3713 83.0327 14.1192C83.0327 17.8671 85.8461 20.8727 89.528 20.8727C91.2895 20.8727 92.5738 20.1182 93.4545 19.0353L93.6013 20.2278C93.6503 20.4711 93.8093 20.605 94.0662 20.605H95.6196C95.901 20.605 96.06 20.459 96.06 20.1791V8.05927C96.06 7.7794 95.9132 7.63338 95.6196 7.63338H94.1028C93.8582 7.63338 93.687 7.76723 93.638 8.0106L93.479 9.25179V9.22745ZM89.577 18.2078C87.3629 18.2078 85.8339 16.5042 85.8339 14.1557C85.8339 11.8072 87.3874 10.0427 89.6014 10.0427C91.8154 10.0427 93.4545 11.8072 93.4545 14.1557C93.4545 16.5042 91.8032 18.2078 89.577 18.2078ZM47.0091 29.5245H50.8622C50.9845 29.5245 51.0457 29.4515 51.0457 29.342V29.0499C51.0457 28.9282 50.9723 28.8674 50.8622 28.8674H47.0091V25.3385H51.853C51.9753 25.3385 52.0365 25.2655 52.0365 25.156V24.8518C52.0365 24.7301 51.9753 24.6693 51.853 24.6693H46.4709C46.3485 24.6693 46.2874 24.7301 46.2874 24.8518V33.1507C46.2874 33.2724 46.3608 33.3332 46.4709 33.3332H46.8378C46.9601 33.3332 47.0213 33.2602 47.0213 33.1507V29.5245H47.0091ZM54.3606 24.5232C54.5074 24.5232 54.593 24.4502 54.593 24.3407V23.8661C54.593 23.7445 54.5074 23.6836 54.3606 23.6836H53.7734C53.6267 23.6836 53.541 23.7566 53.541 23.8661V24.3407C53.541 24.4624 53.6267 24.5232 53.7734 24.5232H54.3606ZM54.5196 26.1782C54.5196 26.0565 54.434 25.9956 54.2872 25.9956H53.8591C53.7123 25.9956 53.6267 26.0565 53.6267 26.1782V33.1507C53.6267 33.2724 53.7001 33.3332 53.8591 33.3332H54.2872C54.434 33.3332 54.5196 33.2602 54.5196 33.1507V26.1782ZM59.9996 25.8618C58.8376 25.8618 57.7122 26.5797 57.2841 27.3585V26.1782C57.2841 26.0565 57.1985 25.9956 57.0884 25.9956H56.7948C56.6725 25.9956 56.6113 26.0565 56.6113 26.1782V33.1507C56.6113 33.2724 56.6725 33.3332 56.7948 33.3332H57.1251C57.2474 33.3332 57.3085 33.2602 57.3085 33.1507V28.9769C57.3085 27.5532 58.6296 26.531 59.9018 26.531C61.2718 26.531 62.2136 27.4315 62.2136 28.9404V33.1507C62.2136 33.2724 62.287 33.3332 62.3971 33.3332H62.7396C62.8619 33.3332 62.9231 33.2602 62.9231 33.1507V28.8917C62.9231 26.9935 61.7243 25.8618 59.9874 25.8618H59.9996ZM70.9352 27.7236C70.4092 26.6406 69.345 25.874 67.9994 25.874C65.9934 25.874 64.4277 27.5532 64.4277 29.6827C64.4277 31.8122 65.9934 33.4914 67.9994 33.4914C69.345 33.4914 70.4092 32.7126 70.9352 31.6175V33.1629C70.9352 33.2724 71.0085 33.3454 71.1186 33.3454H71.4367C71.559 33.3454 71.6202 33.2724 71.6202 33.1629V26.1903C71.6202 26.0686 71.5468 26.0078 71.4367 26.0078H71.1186C70.9963 26.0078 70.9352 26.0686 70.9352 26.1903V27.7236ZM67.9994 32.8222C66.3726 32.8222 65.1249 31.4836 65.1249 29.6949C65.1249 27.9061 66.3603 26.5432 67.9994 26.5432C69.6386 26.5432 70.9474 27.9183 70.9474 29.6949C70.9474 31.4715 69.663 32.8222 67.9872 32.8222H67.9994ZM77.2592 25.874C76.0971 25.874 74.9718 26.5919 74.5314 27.3707V26.1903C74.5192 26.0686 74.4458 26.0078 74.3357 26.0078H74.0421C73.9198 26.0078 73.8586 26.0686 73.8586 26.1903V33.1629C73.8586 33.2846 73.9198 33.3454 74.0421 33.3454H74.3724C74.4947 33.3454 74.5559 33.2724 74.5559 33.1629V28.9891C74.5559 27.5654 75.8769 26.5432 77.1491 26.5432C78.5191 26.5432 79.461 27.4437 79.461 28.9526V33.1629C79.461 33.2846 79.5344 33.3454 79.6444 33.3454H79.9869C80.1093 33.3454 80.1704 33.2724 80.1704 33.1629V28.9039C80.1704 27.0056 78.9717 25.874 77.2347 25.874H77.2592ZM85.5037 33.5158C86.5189 33.5158 87.4241 33.1507 88.0969 32.5179C88.1703 32.4449 88.1703 32.3598 88.0969 32.2746L87.9378 32.0677C87.8645 31.9704 87.7666 31.9582 87.681 32.0434C87.0816 32.5666 86.311 32.8587 85.5159 32.8465C83.7789 32.8465 82.3722 31.4593 82.3722 29.7314C82.3722 29.7192 82.3722 29.707 82.3722 29.6949C82.3722 27.9061 83.7912 26.5189 85.5159 26.5189C86.3477 26.5189 87.0938 26.8231 87.6687 27.3342C87.7544 27.4193 87.8522 27.4072 87.9256 27.3098L88.0846 27.103C88.158 27.0056 88.158 26.9204 88.0724 26.8474C87.3629 26.2147 86.4455 25.874 85.4914 25.874C83.3875 25.874 81.6872 27.5532 81.675 29.634C81.675 29.6462 81.675 29.6705 81.675 29.6827C81.6627 31.7757 83.3386 33.4793 85.4425 33.4914C85.4547 33.4914 85.4792 33.4914 85.4914 33.4914L85.5037 33.5158ZM92.427 33.5158C93.3934 33.5158 94.323 33.175 95.0447 32.5301C95.1303 32.4449 95.1426 32.3598 95.0692 32.2746L94.8979 32.0555C94.8245 31.9582 94.7389 31.946 94.6411 32.0312C94.0417 32.5666 93.2588 32.8587 92.4515 32.8465C90.8736 32.8465 89.5892 31.654 89.4669 29.9626H95.4117C95.5218 29.9626 95.5952 29.9139 95.5952 29.8165V29.6949C95.5952 27.541 94.3108 25.874 92.2069 25.874C90.2497 25.874 88.7696 27.5654 88.7696 29.6949C88.7696 31.8243 90.3843 33.5036 92.4393 33.5036L92.427 33.5158ZM89.4791 29.342C89.6137 27.7236 90.7635 26.5432 92.2191 26.5432C93.7848 26.5432 94.7634 27.6992 94.8979 29.342H89.4791Z" fill="#8492A5"/>
</g>
<defs>
<clipPath id="clip0_16179_559">
<rect width="96.9013" height="36.8649" fill="white" transform="translate(0.293945 0.567566)"/>
</clipPath>
</defs>
</svg>
