<svg width="213" height="29" viewBox="0 0 213 29" fill="none" xmlns="http://www.w3.org/2000/svg">
<path d="M0.251465 1.32495C0.251465 0.772665 0.69918 0.324951 1.25146 0.324951H9.83356V9.77495H0.251465V1.32495Z" fill="#AEDCCF"/>
<path d="M0.251465 9.77495H9.83356V19.225H0.251465V9.77495Z" fill="#77D3B9"/>
<path d="M0.251465 19.225H9.83356V28.675H1.25147C0.699181 28.675 0.251465 28.2272 0.251465 27.675V19.225Z" fill="#0AC18E"/>
<path d="M9.83356 0.324951H19.416V9.77495H9.83356V0.324951Z" fill="#77D3B9"/>
<path d="M9.83356 9.77495H19.416V19.225L9.83356 19.225V9.77495Z" fill="#0AC18E"/>
<path d="M9.83356 19.225L19.416 19.225V28.6749L9.83356 28.675V19.225Z" fill="#77D3B9"/>
<path d="M19.416 0.324951H27.9977C28.5499 0.324951 28.9977 0.772666 28.9977 1.32495V9.77495H19.416V0.324951Z" fill="#0AC18E"/>
<path d="M19.416 9.77495H28.9977V19.225H19.416V9.77495Z" fill="#77D3B9"/>
<path d="M19.416 19.225H28.9977V27.675C28.9977 28.2272 28.5499 28.6749 27.9977 28.6749H19.416V19.225Z" fill="#AEDCCF"/>
<path d="M185.882 9.02707H190.348V11.3279H190.415C191.037 10.4514 191.781 9.77211 192.648 9.29003C193.536 8.80794 194.547 8.56689 195.681 8.56689C196.769 8.56689 197.758 8.77507 198.647 9.19142C199.558 9.60776 200.247 10.3419 200.713 11.3937C201.224 10.6486 201.913 9.99124 202.78 9.4215C203.668 8.85176 204.713 8.56689 205.913 8.56689C206.824 8.56689 207.668 8.67646 208.446 8.89559C209.223 9.11472 209.89 9.46533 210.445 9.94742C211.001 10.4295 211.434 11.065 211.745 11.8539C212.056 12.6208 212.212 13.5521 212.212 14.6478V26.0206H207.479V16.3899C207.479 15.8201 207.457 15.2832 207.412 14.7792C207.368 14.2752 207.246 13.837 207.046 13.4645C206.846 13.0919 206.546 12.7961 206.146 12.577C205.768 12.3579 205.246 12.2483 204.579 12.2483C203.913 12.2483 203.368 12.3798 202.946 12.6427C202.546 12.8838 202.224 13.2125 201.98 13.6288C201.758 14.0232 201.602 14.4834 201.513 15.0093C201.446 15.5133 201.413 16.0283 201.413 16.5542V26.0206H196.68V16.4885C196.68 15.9845 196.669 15.4914 196.647 15.0093C196.625 14.5053 196.525 14.0452 196.347 13.6288C196.192 13.2125 195.914 12.8838 195.514 12.6427C195.136 12.3798 194.57 12.2483 193.814 12.2483C193.592 12.2483 193.292 12.3031 192.914 12.4126C192.559 12.5003 192.203 12.6865 191.848 12.9714C191.514 13.2344 191.226 13.6288 190.981 14.1547C190.737 14.6587 190.615 15.3271 190.615 16.1598V26.0206H185.882V9.02707Z" fill="white"/>
<path d="M170.573 17.5403C170.573 18.2196 170.64 18.8879 170.773 19.5453C170.906 20.1808 171.129 20.7615 171.44 21.2874C171.773 21.7914 172.206 22.1968 172.739 22.5036C173.273 22.8104 173.939 22.9638 174.739 22.9638C175.539 22.9638 176.206 22.8104 176.739 22.5036C177.294 22.1968 177.728 21.7914 178.039 21.2874C178.372 20.7615 178.605 20.1808 178.739 19.5453C178.872 18.8879 178.939 18.2196 178.939 17.5403C178.939 16.861 178.872 16.1926 178.739 15.5352C178.605 14.8779 178.372 14.2972 178.039 13.7932C177.728 13.2892 177.294 12.8838 176.739 12.577C176.206 12.2483 175.539 12.0839 174.739 12.0839C173.939 12.0839 173.273 12.2483 172.739 12.577C172.206 12.8838 171.773 13.2892 171.44 13.7932C171.129 14.2972 170.906 14.8779 170.773 15.5352C170.64 16.1926 170.573 16.861 170.573 17.5403ZM165.84 17.5403C165.84 16.1817 166.051 14.9545 166.474 13.8589C166.896 12.7413 167.496 11.7991 168.273 11.0321C169.051 10.2432 169.984 9.64063 171.073 9.22429C172.162 8.78602 173.384 8.56689 174.739 8.56689C176.095 8.56689 177.317 8.78602 178.405 9.22429C179.516 9.64063 180.461 10.2432 181.238 11.0321C182.016 11.7991 182.616 12.7413 183.038 13.8589C183.46 14.9545 183.671 16.1817 183.671 17.5403C183.671 18.8989 183.46 20.126 183.038 21.2217C182.616 22.3173 182.016 23.2596 181.238 24.0485C180.461 24.8154 179.516 25.4071 178.405 25.8234C177.317 26.2398 176.095 26.4479 174.739 26.4479C173.384 26.4479 172.162 26.2398 171.073 25.8234C169.984 25.4071 169.051 24.8154 168.273 24.0485C167.496 23.2596 166.896 22.3173 166.474 21.2217C166.051 20.126 165.84 18.8989 165.84 17.5403Z" fill="white"/>
<path d="M159.967 15.0093C159.656 13.0591 158.49 12.0839 156.468 12.0839C155.712 12.0839 155.079 12.2592 154.568 12.6099C154.057 12.9385 153.635 13.3768 153.301 13.9246C152.99 14.4505 152.768 15.0422 152.635 15.6996C152.502 16.3351 152.435 16.9705 152.435 17.606C152.435 18.2196 152.502 18.8441 152.635 19.4796C152.768 20.1151 152.979 20.6958 153.268 21.2217C153.579 21.7257 153.99 22.142 154.501 22.4707C155.012 22.7994 155.634 22.9638 156.368 22.9638C157.501 22.9638 158.367 22.657 158.967 22.0434C159.589 21.4079 159.978 20.5643 160.134 19.5125H164.7C164.389 21.7695 163.5 23.4897 162.034 24.673C160.567 25.8563 158.69 26.4479 156.401 26.4479C155.112 26.4479 153.924 26.2398 152.835 25.8234C151.768 25.3852 150.857 24.7825 150.102 24.0156C149.346 23.2486 148.758 22.3392 148.335 21.2874C147.913 20.2137 147.702 19.0413 147.702 17.7704C147.702 16.4556 147.891 15.2394 148.269 14.1219C148.669 12.9824 149.246 12.0072 150.002 11.1965C150.757 10.3638 151.679 9.71733 152.768 9.25715C153.857 8.79698 155.101 8.56689 156.501 8.56689C157.523 8.56689 158.501 8.69837 159.434 8.96133C160.389 9.22429 161.234 9.62968 161.967 10.1775C162.722 10.7034 163.333 11.3718 163.8 12.1825C164.267 12.9714 164.533 13.9137 164.6 15.0093H159.967Z" fill="white"/>
<path d="M140.159 20.9587H145.392V26.0207H140.159V20.9587Z" fill="white"/>
<path d="M121.203 9.02707H125.702V11.3937H125.802C126.402 10.4076 127.18 9.69542 128.135 9.25715C129.091 8.79698 130.068 8.56689 131.068 8.56689C132.335 8.56689 133.368 8.7422 134.168 9.09281C134.99 9.4215 135.634 9.89263 136.101 10.5062C136.567 11.0979 136.889 11.8319 137.067 12.7085C137.267 13.5631 137.367 14.5163 137.367 15.5681V26.0206H132.634V16.4227C132.634 15.0203 132.412 13.9794 131.968 13.3001C131.524 12.5989 130.735 12.2483 129.602 12.2483C128.313 12.2483 127.38 12.6318 126.802 13.3987C126.224 14.1438 125.935 15.3819 125.935 17.113V26.0206H121.203V9.02707Z" fill="white"/>
<path d="M118.475 6.3975H113.743V2.55176H118.475V6.3975ZM113.743 9.02706H118.475V26.0206H113.743V9.02706Z" fill="white"/>
<path d="M98.4339 17.5403C98.4339 18.2196 98.5006 18.8879 98.6339 19.5453C98.7672 20.1808 98.9894 20.7615 99.3004 21.2874C99.6337 21.7914 100.067 22.1968 100.6 22.5036C101.134 22.8104 101.8 22.9638 102.6 22.9638C103.4 22.9638 104.067 22.8104 104.6 22.5036C105.155 22.1968 105.589 21.7914 105.9 21.2874C106.233 20.7615 106.466 20.1808 106.6 19.5453C106.733 18.8879 106.799 18.2196 106.799 17.5403C106.799 16.861 106.733 16.1926 106.6 15.5352C106.466 14.8779 106.233 14.2972 105.9 13.7932C105.589 13.2892 105.155 12.8838 104.6 12.577C104.067 12.2483 103.4 12.0839 102.6 12.0839C101.8 12.0839 101.134 12.2483 100.6 12.577C100.067 12.8838 99.6337 13.2892 99.3004 13.7932C98.9894 14.2972 98.7672 14.8779 98.6339 15.5352C98.5006 16.1926 98.4339 16.861 98.4339 17.5403ZM93.7012 17.5403C93.7012 16.1817 93.9123 14.9545 94.3344 13.8589C94.7566 12.7413 95.3565 11.7991 96.1342 11.0321C96.9119 10.2432 97.8451 9.64063 98.9338 9.22429C100.023 8.78602 101.245 8.56689 102.6 8.56689C103.955 8.56689 105.177 8.78602 106.266 9.22429C107.377 9.64063 108.322 10.2432 109.099 11.0321C109.877 11.7991 110.477 12.7413 110.899 13.8589C111.321 14.9545 111.532 16.1817 111.532 17.5403C111.532 18.8989 111.321 20.126 110.899 21.2217C110.477 22.3173 109.877 23.2596 109.099 24.0485C108.322 24.8154 107.377 25.4071 106.266 25.8234C105.177 26.2398 103.955 26.4479 102.6 26.4479C101.245 26.4479 100.023 26.2398 98.9338 25.8234C97.8451 25.4071 96.9119 24.8154 96.1342 24.0485C95.3565 23.2596 94.7566 22.3173 94.3344 21.2217C93.9123 20.126 93.7012 18.8989 93.7012 17.5403Z" fill="white"/>
<path d="M87.8281 15.0093C87.517 13.0591 86.3505 12.0839 84.3285 12.0839C83.5731 12.0839 82.9398 12.2592 82.4288 12.6099C81.9177 12.9385 81.4956 13.3768 81.1623 13.9246C80.8512 14.4505 80.629 15.0422 80.4957 15.6996C80.3624 16.3351 80.2957 16.9705 80.2957 17.606C80.2957 18.2196 80.3624 18.8441 80.4957 19.4796C80.629 20.1151 80.8401 20.6958 81.1289 21.2217C81.44 21.7257 81.8511 22.142 82.3621 22.4707C82.8732 22.7994 83.4953 22.9638 84.2285 22.9638C85.3617 22.9638 86.2283 22.657 86.8282 22.0434C87.4503 21.4079 87.8392 20.5643 87.9947 19.5125H92.5608C92.2497 21.7695 91.3609 23.4897 89.8945 24.673C88.428 25.8563 86.5505 26.4479 84.2619 26.4479C82.9731 26.4479 81.7844 26.2398 80.6957 25.8234C79.6291 25.3852 78.7181 24.7825 77.9627 24.0156C77.2072 23.2486 76.6184 22.3392 76.1962 21.2874C75.7741 20.2137 75.563 19.0413 75.563 17.7704C75.563 16.4556 75.7519 15.2394 76.1296 14.1219C76.5295 12.9824 77.1072 12.0072 77.8627 11.1965C78.6181 10.3638 79.5403 9.71733 80.629 9.25715C81.7178 8.79698 82.962 8.56689 84.3619 8.56689C85.3839 8.56689 86.3616 8.69837 87.2948 8.96133C88.2502 9.22429 89.0946 9.62968 89.8278 10.1775C90.5833 10.7034 91.1943 11.3718 91.6609 12.1825C92.1275 12.9714 92.3942 13.9137 92.4608 15.0093H87.8281Z" fill="white"/>
<path d="M71.3783 9.02691H74.8445V12.1495H71.3783V20.5641C71.3783 21.353 71.5116 21.8789 71.7783 22.1419C72.0449 22.4048 72.5782 22.5363 73.3781 22.5363C73.6447 22.5363 73.9002 22.5253 74.1446 22.5034C74.389 22.4815 74.6223 22.4487 74.8445 22.4048V26.0205C74.4446 26.0862 74.0002 26.13 73.5114 26.152C73.0225 26.1739 72.5448 26.1848 72.0782 26.1848C71.345 26.1848 70.6451 26.13 69.9785 26.0205C69.3341 25.9328 68.7564 25.7466 68.2454 25.4617C67.7566 25.1768 67.3677 24.7714 67.0789 24.2455C66.79 23.7196 66.6456 23.0293 66.6456 22.1747V12.1495H63.7793V9.02691H66.6456V3.93213H71.3783V9.02691Z" fill="white"/>
<path d="M62.2357 6.3975H57.5029V2.55176H62.2357V6.3975ZM57.5029 9.02706H62.2357V26.0206H57.5029V9.02706Z" fill="white"/>
<path d="M41.0515 12.0511H46.3508C47.284 12.0511 48.0506 11.8319 48.6505 11.3937C49.2504 10.9554 49.5504 10.2432 49.5504 9.25715C49.5504 8.70932 49.4504 8.26011 49.2504 7.9095C49.0505 7.55889 48.7838 7.28498 48.4505 7.08776C48.1173 6.89054 47.7284 6.75906 47.284 6.69332C46.8619 6.60567 46.4175 6.56185 45.9509 6.56185H41.0515V12.0511ZM35.8188 2.55176H47.0174C48.1506 2.55176 49.1838 2.65037 50.117 2.84758C51.0502 3.0448 51.8501 3.3735 52.5167 3.83367C53.1833 4.27193 53.6943 4.86358 54.0498 5.60863C54.4276 6.35367 54.6164 7.27402 54.6164 8.36967C54.6164 9.55298 54.3387 10.5391 53.7832 11.3279C53.2499 12.1168 52.45 12.7632 51.3835 13.2672C52.85 13.6836 53.9387 14.4177 54.6497 15.4695C55.383 16.4994 55.7496 17.7485 55.7496 19.2166C55.7496 20.3999 55.5163 21.4298 55.0497 22.3064C54.5831 23.161 53.9498 23.8622 53.1499 24.41C52.3723 24.9578 51.4724 25.3632 50.4503 25.6262C49.4504 25.8891 48.4172 26.0206 47.3507 26.0206H35.8188V2.55176ZM41.0515 22.0105H46.6508C47.1618 22.0105 47.6507 21.9667 48.1173 21.8791C48.5839 21.7695 48.9949 21.6051 49.3504 21.386C49.7059 21.145 49.9837 20.8272 50.1837 20.4328C50.4059 20.0384 50.5169 19.5344 50.5169 18.9208C50.5169 17.7156 50.1726 16.861 49.4838 16.357C48.7949 15.8311 47.884 15.5681 46.7508 15.5681H41.0515V22.0105Z" fill="white"/>
</svg>
