<svg width="211" height="49" viewBox="0 0 211 49" fill="none" xmlns="http://www.w3.org/2000/svg">
<mask id="mask0_16155_9296" style="mask-type:luminance" maskUnits="userSpaceOnUse" x="0" y="0" width="211" height="49">
<path d="M210.425 0.875H0V48.125H210.425V0.875Z" fill="white"/>
</mask>
<g mask="url(#mask0_16155_9296)">
<path fill-rule="evenodd" clip-rule="evenodd" d="M47.6136 24.5011C47.6136 28.7996 46.4935 32.9995 44.3176 36.6746L40.6056 31.326C41.9496 28.0449 42.3016 24.4027 41.5977 20.8917C41.5656 20.7932 41.5656 20.662 41.5337 20.5636V20.5308C41.5017 20.3995 41.4696 20.3011 41.4377 20.1699C41.4057 20.0387 41.4057 19.973 41.3736 19.8745C41.3097 19.6449 41.2457 19.448 41.1816 19.2182C41.1816 19.1527 41.1497 19.087 41.1177 19.0214C41.1177 18.9886 41.0856 18.9558 41.0856 18.9229C41.0217 18.726 40.9577 18.5292 40.8936 18.3323C40.8617 18.2011 40.7976 18.0699 40.7337 17.9385C40.6697 17.8074 40.6377 17.6762 40.5737 17.5448C40.5096 17.4136 40.4777 17.2824 40.4137 17.1511C40.2857 16.8887 40.1897 16.6261 40.0618 16.3636C39.9977 16.2652 39.9658 16.1339 39.9017 16.0355L39.8698 16.0027C39.8698 16.0027 39.8698 16.0027 39.8698 15.9699C39.8057 15.8386 39.7417 15.7402 39.6778 15.6089C39.6137 15.4777 39.5497 15.3464 39.4537 15.248C39.2938 14.9855 39.1337 14.723 38.9737 14.4605C38.0458 13.0496 36.9258 11.8027 35.6779 10.7527L35.3899 10.4902L35.0059 10.1949C34.9099 10.0964 34.7819 10.0308 34.654 9.93237C34.5259 9.83393 34.4299 9.7683 34.3339 9.70269C34.206 9.60425 34.078 9.53862 33.9499 9.44018C33.822 9.34174 33.7579 9.30894 33.694 9.27611C33.63 9.24331 33.534 9.17768 33.438 9.11206C28.9261 6.38862 23.4863 5.89643 18.5904 7.73394C17.3105 8.22612 14.6226 9.86674 14.5266 9.93237L11.1987 5.273L11.6467 4.97769C12.7667 4.19019 13.9506 3.50112 15.1666 2.94331C21.5663 -0.00981945 28.8942 0.219867 35.134 3.50112C35.3579 3.59956 35.5819 3.73081 35.7739 3.86205C35.8699 3.92768 35.9978 3.99331 36.0938 4.05893L36.3818 4.2558C36.4778 4.32143 36.5739 4.38706 36.6699 4.45268C36.8939 4.58394 37.0859 4.71518 37.3098 4.84643L37.5659 5.01049C37.6938 5.07612 37.7898 5.17456 37.9177 5.273C38.0458 5.37144 38.1738 5.43705 38.2698 5.53549L38.4618 5.69956L38.7817 5.96206C39.0697 6.19174 39.3577 6.45425 39.6457 6.68393C39.9337 6.91361 40.1897 7.17612 40.4777 7.43862L40.8617 7.83237C40.9896 7.96362 41.1177 8.09486 41.2457 8.22612C41.5017 8.48861 41.7257 8.75112 41.9498 9.01362L42.2376 9.37455C42.3336 9.50581 42.4297 9.60425 42.5257 9.73549C42.6217 9.86674 42.6856 9.93237 42.7497 10.0308C42.8137 10.1292 42.9097 10.2277 42.9736 10.3261L43.1976 10.6214C43.2936 10.7527 43.3897 10.8839 43.4536 11.0152C43.5177 11.1464 43.6456 11.2777 43.7096 11.4089C43.7416 11.4746 43.8056 11.5402 43.8376 11.6058C43.8695 11.6714 43.9336 11.7371 43.9657 11.8027L44.1575 12.1308C44.2535 12.2949 44.3497 12.4589 44.4457 12.623L44.6375 12.9839L44.8297 13.3449C44.8297 13.3449 44.8295 13.3777 44.8616 13.3777L44.8936 13.4105C44.8936 13.4105 44.8936 13.4433 44.9257 13.4433C44.9257 13.4433 44.9255 13.4761 44.9576 13.4761L45.1496 13.8371L45.1815 13.8699C45.2456 14.0011 45.3096 14.1324 45.3735 14.2964C45.4376 14.4605 45.5016 14.5917 45.5655 14.7558L45.7256 15.1496L45.8856 15.5105L46.0136 15.8386C46.0776 16.0027 46.1415 16.1339 46.1736 16.2652C46.2056 16.298 46.2056 16.3308 46.2056 16.3964C46.2696 16.5605 46.3335 16.7245 46.3656 16.8887C46.4935 17.2495 46.5895 17.6105 46.6855 18.0042C46.7175 18.1683 46.7815 18.3652 46.8135 18.5292V18.5949C46.9095 18.9886 47.0055 19.3496 47.0695 19.7433C47.1015 19.9402 47.1336 20.1371 47.1655 20.3011C47.1655 20.334 47.1655 20.3667 47.1655 20.3667C47.1975 20.5308 47.2294 20.6948 47.2615 20.8589L47.3256 21.4168V21.4495C47.3575 21.6464 47.3575 21.8433 47.3895 22.0402C47.4216 22.4012 47.4535 22.762 47.4855 23.1557C47.6136 23.6152 47.6136 24.0417 47.6136 24.5011Z" fill="#0059FF"/>
<path d="M41.4067 40.612C40.3508 41.7605 39.1988 42.8105 37.9508 43.7292C34.079 46.5839 29.3752 48.1262 24.5753 48.1262C11.8398 48.1262 1.53613 37.5604 1.53613 24.5012C1.53613 20.1042 2.72009 15.8058 4.96002 12.098C5.05602 11.9339 5.18401 11.7698 5.28001 11.573L5.59999 11.0808C5.98398 10.4901 6.43197 9.93233 6.87996 9.37451L7.16795 9.04639C7.19994 8.98076 7.26394 8.94795 7.29594 8.88232C7.39193 8.75108 7.48793 8.65264 7.61592 8.5214L7.74393 8.39014L11.0718 13.1808L11.1038 13.2464C11.0398 13.3448 10.9438 13.4433 10.8798 13.5417C10.8158 13.6401 10.7198 13.7386 10.6558 13.837C4.89602 21.712 6.46396 32.8683 14.1437 38.7417C20.1914 43.4012 28.5112 43.4996 34.655 38.9715L32.7351 36.2152L29.4712 31.4902C30.7832 30.5058 31.8071 29.1932 32.4151 27.6512C34.111 23.2215 31.999 18.2339 27.6792 16.4948C26.6873 16.1011 25.6633 15.9042 24.6073 15.9042H24.2554C22.6235 15.9698 21.0875 16.5276 19.7436 17.5121L16.4156 12.7542C17.6955 11.8354 19.0716 11.1136 20.5754 10.6542C21.8555 10.2604 23.2314 10.0636 24.5753 10.0636C24.9913 10.0636 25.4074 10.0964 25.8233 10.1292C33.5671 10.8183 39.2629 17.8074 38.5909 25.7479C38.3669 28.3073 37.4709 30.7682 36.0309 32.8683L38.0468 35.7558L41.4067 40.612Z" fill="white"/>
<path fill-rule="evenodd" clip-rule="evenodd" d="M29.438 31.4891C25.7261 34.311 20.4784 33.5235 17.7264 29.7172C14.9745 25.9109 15.7425 20.5298 19.4544 17.7079C19.5504 17.6422 19.6464 17.5767 19.7104 17.511L29.438 31.4891Z" fill="#0059FF"/>
<path d="M65.9955 24.2568L69.4228 27.0482C67.1934 30.3412 64.5705 31.776 61.6712 31.776C60.44 31.8027 59.2164 31.5575 58.0717 31.0548C56.9272 30.5521 55.8848 29.8019 55.0055 28.8482C54.1262 27.8945 53.4278 26.7564 52.951 25.5007C52.4742 24.2448 52.2285 22.8963 52.2285 21.5343C52.2285 20.1721 52.4742 18.8237 52.951 17.568C53.4278 16.3121 54.1262 15.174 55.0055 14.2203C55.8848 13.2667 56.9272 12.5166 58.0717 12.0138C59.2164 11.5111 60.44 11.2658 61.6712 11.2925C64.6202 11.2925 67.2927 12.8135 69.5186 16.1027L66.045 18.9213C64.645 16.8476 63.2095 16.0203 61.6712 16.0203C60.3523 16.0203 59.0876 16.5998 58.1549 17.6314C57.2224 18.6628 56.6984 20.0619 56.6984 21.5206C56.6984 22.9793 57.2224 24.3782 58.1549 25.4098C59.0876 26.4412 60.3523 27.0207 61.6712 27.0207C63.2202 27.0207 64.5953 26.2875 65.9955 24.2568Z" fill="white"/>
<path d="M75.6163 19.5592C76.7574 18.9302 78.0171 18.609 79.2918 18.6222L78.3171 22.9895C76.8428 22.9895 75.6163 23.8166 75.6163 24.8399V31.5043H71.668V18.8418H75.6163V19.5592Z" fill="white"/>
<path d="M82.5167 37.3383L85.0934 30.317L80.8687 18.8423H84.8418L87.0677 24.813L89.2405 18.8423H93.2173L86.4368 37.3383H82.5167Z" fill="white"/>
<path d="M106.963 25.172C106.963 26.9233 106.336 28.6033 105.219 29.845C104.666 30.449 104.01 30.926 103.289 31.2482C102.568 31.5705 101.796 31.7318 101.019 31.7228C100.295 31.6996 99.5954 31.4255 99.02 30.9387V37.3523H95.0645V18.8407H99.0128V19.4209C99.5842 18.9257 100.286 18.6504 101.012 18.6369C101.79 18.6247 102.562 18.7829 103.284 19.1026C104.006 19.4222 104.664 19.8967 105.219 20.499C106.336 21.7408 106.963 23.4207 106.963 25.172ZM103.014 25.172C103.01 24.7349 102.889 24.309 102.667 23.9479C102.444 23.5867 102.13 23.3065 101.764 23.1425C101.397 22.9784 100.995 22.9379 100.608 23.026C100.221 23.1141 99.8664 23.3268 99.5885 23.6377C99.3105 23.9483 99.1219 24.343 99.0463 24.772C98.9708 25.201 99.0116 25.6452 99.1639 26.0484C99.3161 26.4518 99.5726 26.7965 99.9016 27.0388C100.23 27.2812 100.617 27.4104 101.012 27.4104C101.276 27.4089 101.538 27.3498 101.781 27.2366C102.025 27.1231 102.246 26.9579 102.432 26.75C102.618 26.5421 102.765 26.2958 102.865 26.0251C102.965 25.7543 103.016 25.4644 103.014 25.172Z" fill="white"/>
<path d="M109.564 26.8839V22.9049H108.188V18.8396H109.564V14.8879H113.512V18.8396H116.365V22.9049H113.512V26.8252C113.502 26.9175 113.526 27.0107 113.577 27.0842C113.629 27.1576 113.705 27.2054 113.789 27.2173H116.188L117.213 31.5021H113.728C113.18 31.5042 112.637 31.3861 112.13 31.1544C111.623 30.923 111.163 30.5829 110.775 30.1533C110.388 29.724 110.082 29.2139 109.874 28.6528C109.666 28.0916 109.56 27.4905 109.564 26.8839Z" fill="white"/>
<path d="M130.336 25.1708C130.334 26.9232 129.704 28.6032 128.585 29.8436C127.477 31.066 125.975 31.7514 124.41 31.749C123.618 31.7703 122.831 31.6164 122.093 31.2961C121.357 30.9759 120.685 30.4957 120.118 29.8841C119.551 29.2724 119.101 28.5415 118.794 27.7343C118.486 26.9271 118.328 26.0602 118.328 25.1843C118.328 24.3087 118.486 23.4417 118.794 22.6346C119.101 21.8274 119.551 21.0964 120.118 20.4848C120.685 19.8731 121.357 19.393 122.093 19.0727C122.831 18.7525 123.618 18.5986 124.41 18.6199C125.183 18.6136 125.95 18.7762 126.666 19.0985C127.383 19.4206 128.035 19.8963 128.585 20.4978C129.704 21.7382 130.334 23.4184 130.336 25.1708ZM126.384 25.1708C126.362 24.6041 126.143 24.0684 125.773 23.676C125.403 23.2835 124.91 23.0643 124.397 23.0643C123.884 23.0643 123.391 23.2835 123.021 23.676C122.651 24.0684 122.432 24.6041 122.411 25.1708C122.399 25.4671 122.442 25.7629 122.537 26.0404C122.632 26.3179 122.776 26.5714 122.962 26.7855C123.147 26.9996 123.37 27.17 123.617 27.2863C123.864 27.4028 124.129 27.4628 124.397 27.4628C124.665 27.4628 124.931 27.4028 125.178 27.2863C125.424 27.17 125.647 26.9996 125.833 26.7855C126.018 26.5714 126.163 26.3179 126.257 26.0404C126.352 25.7629 126.395 25.4671 126.384 25.1708Z" fill="white"/>
<path d="M144.258 25.1717C144.257 26.9245 143.627 28.6052 142.507 29.8447C141.954 30.4483 141.299 30.925 140.578 31.2473C139.858 31.5696 139.087 31.7311 138.31 31.7224C137.585 31.7002 136.884 31.4259 136.308 30.9384V37.352H132.359V18.8405H136.308V19.4206C136.88 18.9254 137.584 18.6501 138.31 18.6365C139.087 18.6281 139.858 18.7895 140.578 19.1118C141.299 19.4341 141.954 19.9107 142.507 20.5144C143.624 21.75 144.253 23.4243 144.258 25.1717ZM140.31 25.1717C140.305 24.7344 140.184 24.3085 139.961 23.9472C139.739 23.586 139.424 23.3058 139.058 23.1417C138.691 22.9779 138.289 22.9376 137.902 23.026C137.515 23.1145 137.16 23.3276 136.882 23.6386C136.604 23.9498 136.416 24.3448 136.341 24.7741C136.266 25.2033 136.307 25.6477 136.46 26.0509C136.613 26.4543 136.87 26.7984 137.199 27.0404C137.528 27.2823 137.915 27.411 138.31 27.4103C138.575 27.4086 138.836 27.3495 139.079 27.236C139.323 27.1228 139.544 26.9574 139.73 26.7495C139.915 26.5416 140.062 26.2951 140.162 26.0244C140.261 25.7536 140.311 25.4639 140.31 25.1717Z" fill="white"/>
<path d="M157.757 25.1708C157.756 26.9226 157.127 28.6028 156.009 29.8436C154.9 31.0649 153.399 31.7501 151.834 31.749C151.042 31.7703 150.255 31.6164 149.518 31.2961C148.781 30.9759 148.109 30.4957 147.542 29.8841C146.976 29.2724 146.525 28.5415 146.218 27.7343C145.91 26.9271 145.752 26.0602 145.752 25.1843C145.752 24.3087 145.91 23.4417 146.218 22.6346C146.525 21.8274 146.976 21.0964 147.542 20.4848C148.109 19.8731 148.781 19.393 149.518 19.0727C150.255 18.7525 151.042 18.5986 151.834 18.6199C152.607 18.6142 153.374 18.7771 154.09 19.0994C154.807 19.4216 155.459 19.8968 156.009 20.4978C157.127 21.7386 157.756 23.4188 157.757 25.1708ZM153.808 25.1708C153.786 24.6041 153.568 24.0684 153.198 23.676C152.827 23.2835 152.334 23.0643 151.822 23.0643C151.309 23.0643 150.816 23.2835 150.446 23.676C150.075 24.0684 149.856 24.6041 149.835 25.1708C149.824 25.4671 149.867 25.7629 149.961 26.0404C150.056 26.3179 150.201 26.5714 150.386 26.7855C150.572 26.9996 150.795 27.17 151.041 27.2863C151.288 27.4028 151.553 27.4628 151.822 27.4628C152.09 27.4628 152.355 27.4028 152.602 27.2863C152.849 27.17 153.071 26.9996 153.257 26.7855C153.443 26.5714 153.587 26.3179 153.682 26.0404C153.776 25.7629 153.819 25.4671 153.808 25.1708Z" fill="white"/>
<path d="M160.008 31.5031V11.2393H163.985V31.5031H160.008Z" fill="white"/>
<path d="M167.48 14.6396C167.48 14.3128 167.538 13.9888 167.651 13.6866C167.763 13.3842 167.928 13.1097 168.137 12.8783C168.346 12.6471 168.595 12.4636 168.867 12.3387C169.141 12.2138 169.433 12.1496 169.728 12.1501C170.325 12.1501 170.898 12.4125 171.32 12.8793C171.742 13.3461 171.98 13.9794 171.98 14.6396C171.98 15.2998 171.742 15.9329 171.32 16.3999C170.898 16.8667 170.325 17.129 169.728 17.129C169.433 17.1299 169.139 17.0663 168.867 16.9416C168.593 16.8166 168.345 16.6334 168.135 16.402C167.928 16.1705 167.761 15.8956 167.649 15.5931C167.537 15.2906 167.48 14.9666 167.48 14.6396ZM167.758 18.842H171.706V31.5046H167.758V18.842Z" fill="white"/>
<path d="M175.852 26.8839V22.9049H174.48V18.8396H175.852V14.8879H179.803V18.8396H182.639V22.9049H179.803V26.8252C179.793 26.917 179.817 27.0095 179.868 27.0829C179.919 27.1563 179.994 27.2045 180.077 27.2173H182.487L183.511 31.5021H180.038C179.487 31.5072 178.942 31.3915 178.432 31.1614C177.923 30.9313 177.461 30.5915 177.071 30.1618C176.682 29.732 176.374 29.221 176.163 28.6583C175.954 28.0955 175.848 27.4923 175.852 26.8839Z" fill="white"/>
<path d="M192.653 19.4225V18.8422H196.626V31.5047H192.653V30.9245C192.102 31.4443 191.399 31.7232 190.674 31.7085C189.897 31.7085 189.126 31.5392 188.409 31.2099C187.691 30.8807 187.037 30.3982 186.486 29.79C185.937 29.1815 185.501 28.4594 185.204 27.6646C184.906 26.8699 184.753 26.018 184.753 25.1578C184.753 24.2976 184.906 23.4456 185.204 22.6509C185.501 21.8561 185.937 21.134 186.486 20.5256C187.037 19.9173 187.691 19.4349 188.409 19.1056C189.126 18.7764 189.897 18.607 190.674 18.607C191.402 18.601 192.107 18.8913 192.653 19.4225ZM192.653 25.1734C192.646 24.7397 192.523 24.3181 192.301 23.9613C192.076 23.6046 191.763 23.3288 191.399 23.1687C191.033 23.0086 190.635 22.9713 190.251 23.0614C189.868 23.1517 189.516 23.3653 189.242 23.6755C188.968 23.9858 188.783 24.3788 188.711 24.805C188.638 25.2313 188.681 25.6718 188.834 26.0712C188.987 26.4707 189.244 26.811 189.572 27.0496C189.899 27.2882 190.283 27.4142 190.674 27.412C191.205 27.4037 191.71 27.1636 192.081 26.744C192.452 26.3247 192.658 25.7598 192.653 25.1734Z" fill="white"/>
<path d="M208.822 20.4436C209.855 21.5986 210.431 23.1593 210.425 24.7834V31.5027H206.476V24.7834C206.476 24.3102 206.306 23.8566 206.003 23.5221C205.701 23.1876 205.291 22.9996 204.864 22.9996C204.435 22.9996 204.025 23.1876 203.722 23.5221C203.421 23.8566 203.251 24.3102 203.251 24.7834V31.5027H199.298V18.8402H203.251V19.4205C203.448 18.8951 204.314 18.6364 204.874 18.6364C205.605 18.6297 206.33 18.7828 207.007 19.0869C207.686 19.3909 208.302 19.84 208.822 20.4084V20.4436Z" fill="white"/>
<path d="M65.9734 24.2477L69.4109 27.0306C67.1783 30.3232 64.5559 31.7736 61.6498 31.7736C56.5465 31.8912 52.2939 27.3834 52.2231 21.739C52.1522 16.0945 56.1922 11.3909 61.2954 11.3125C61.4018 11.3125 61.5434 11.3125 61.6498 11.3125C64.5913 11.3125 67.2846 12.8413 69.4819 16.1338L66.0088 18.9561C64.6266 16.8785 63.1738 16.0554 61.6498 16.0554C58.9211 16.0554 56.6884 18.5248 56.6884 21.5431C56.6884 24.5612 58.9211 27.0306 61.6498 27.0306C63.2091 27.0306 64.5913 26.2859 65.9734 24.2477Z" fill="white"/>
<path d="M75.6137 19.544C76.7476 18.9167 78.0234 18.6033 79.2992 18.6033L78.3424 22.9542C76.8539 22.9542 75.6491 23.7773 75.6491 24.7963V31.46H71.7153V18.8385H75.6491V19.544H75.6137Z" fill="white"/>
<path d="M82.4876 37.3398L85.0747 30.3234L80.8574 18.8386H84.8265L87.0592 24.7965L89.2211 18.8386H93.1902L86.4213 37.3398H82.4876Z" fill="white"/>
<path d="M106.942 25.1483C106.942 26.9121 106.304 28.5976 105.205 29.8128C104.071 31.0279 102.583 31.6943 100.988 31.6943C100.279 31.655 99.5704 31.3806 99.0033 30.9103V37.3387H95.0342V18.8374H98.9679V19.4254C99.5349 18.9159 100.244 18.6415 100.953 18.6415C102.512 18.6022 104.036 19.2686 105.17 20.523C106.304 21.7381 106.942 23.4235 106.942 25.1483ZM103.008 25.1483C103.008 23.9332 102.086 22.9531 100.988 22.9531C99.8894 22.9531 99.0033 23.9723 99.0033 25.1874C99.0033 26.4026 99.9248 27.3825 100.988 27.3825C102.122 27.3825 103.008 26.4026 103.008 25.1483Z" fill="white"/>
<path d="M109.528 26.8714V22.9124H108.146V18.836H109.528V14.877H113.461V18.836H116.297V22.9124H113.461V26.8322C113.426 27.0281 113.568 27.185 113.745 27.2242H116.155L117.182 31.4966H113.71C111.406 31.4966 109.563 29.4584 109.528 26.9105C109.528 26.9105 109.528 26.9105 109.528 26.8714Z" fill="white"/>
<path d="M130.33 25.1491C130.33 26.913 129.692 28.5986 128.594 29.8137C127.495 31.0287 125.971 31.7343 124.412 31.7343C121.151 31.8128 118.423 28.9514 118.316 25.3452C118.245 21.7389 120.832 18.7209 124.093 18.6033C124.199 18.6033 124.27 18.6033 124.376 18.6033C125.936 18.6033 127.424 19.2695 128.558 20.4847C129.692 21.7389 130.295 23.4246 130.33 25.1491ZM126.361 25.1491C126.326 23.9341 125.404 22.9933 124.306 23.0325C123.278 23.0718 122.463 24.0125 122.392 25.1491C122.356 26.3644 123.207 27.3834 124.306 27.4227C125.404 27.4618 126.326 26.5211 126.361 25.306C126.361 25.306 126.361 25.2276 126.361 25.1491Z" fill="white"/>
<path d="M144.222 25.1466C144.222 26.9105 143.584 28.5961 142.485 29.8112C141.351 31.0262 139.862 31.6926 138.303 31.6926C137.594 31.6535 136.885 31.379 136.319 30.9086V37.3371H132.385V18.8359H136.319V19.4239C136.885 18.9142 137.594 18.6399 138.303 18.6399C139.862 18.6399 141.386 19.3063 142.485 20.5214C143.584 21.7364 144.222 23.422 144.222 25.1466ZM140.288 25.1466C140.288 23.9315 139.366 22.9517 138.268 22.9517C137.169 22.9517 136.283 23.9707 136.283 25.1859C136.283 26.401 137.204 27.3809 138.303 27.3809C139.402 27.3809 140.288 26.401 140.288 25.1466Z" fill="white"/>
<path d="M157.726 25.1491C157.726 26.913 157.088 28.5986 155.99 29.8137C154.891 31.0287 153.367 31.7343 151.808 31.7343C148.548 31.8128 145.819 28.9514 145.712 25.3452C145.642 21.7389 148.229 18.7209 151.489 18.6033C151.595 18.6033 151.666 18.6033 151.772 18.6033C153.332 18.6033 154.82 19.2695 155.954 20.4847C157.088 21.7389 157.726 23.4246 157.726 25.1491ZM153.793 25.1491C153.757 23.9341 152.836 22.9933 151.737 23.0325C150.709 23.0718 149.894 24.0125 149.823 25.1491C149.788 26.3644 150.639 27.3834 151.737 27.4227C152.836 27.4618 153.757 26.5211 153.793 25.306C153.793 25.306 153.793 25.2276 153.793 25.1491Z" fill="white"/>
<path d="M159.994 31.4967V11.2317H163.962V31.4967H159.994Z" fill="white"/>
<path d="M167.47 14.6418C167.47 13.2698 168.461 12.1724 169.702 12.1724C170.942 12.1724 171.969 13.2698 171.969 14.6418C171.969 16.0138 170.977 17.1504 169.702 17.1504C168.461 17.1112 167.47 16.0138 167.47 14.6418ZM167.716 18.836H171.651V31.4966H167.716V18.836Z" fill="white"/>
<path d="M175.835 26.8714V22.9124H174.454V18.836H175.835V14.877H179.805V18.836H182.639V22.9124H179.805V26.8322C179.769 27.0281 179.911 27.185 180.088 27.2242H182.498L183.525 31.4966H180.054C177.749 31.5359 175.871 29.4975 175.871 26.9498C175.835 26.9105 175.835 26.9105 175.835 26.8714Z" fill="white"/>
<path d="M192.634 19.4264V18.8385H196.602V31.4991H192.634V30.9111C192.067 31.4208 191.394 31.6952 190.649 31.6952C187.388 31.6952 184.73 28.7554 184.73 25.1491C184.73 21.5431 187.388 18.6033 190.649 18.6033C191.358 18.6033 192.067 18.8776 192.634 19.4264ZM192.634 25.1491C192.598 23.9341 191.712 22.9542 190.613 22.9933C189.514 23.0325 188.629 24.0125 188.663 25.2276C188.699 26.4426 189.585 27.3834 190.649 27.3834C191.747 27.3834 192.634 26.4035 192.634 25.1491Z" fill="white"/>
<path d="M208.791 20.4446C209.819 21.5813 210.387 23.1492 210.387 24.7955V31.4982H206.452V24.7955C206.452 23.8156 205.745 22.9925 204.858 22.9925C203.972 22.9925 203.227 23.7763 203.227 24.7563V31.4591H199.258V18.8374H203.227V19.4254C203.44 18.9159 204.29 18.6415 204.858 18.6415C206.311 18.6022 207.728 19.2686 208.791 20.4446Z" fill="white"/>
</g>
</svg>
