<svg width="1440" height="527" viewBox="0 0 1440 527" fill="none" xmlns="http://www.w3.org/2000/svg">
<path opacity="0.7" d="M81.112 196.341L286.212 90.762M286.212 90.762L499.342 -19.0341M286.212 90.762L58.5912 -31.077V-248.045M286.212 90.762L509.089 207.723M499.342 -19.0341L705.356 -125.165M499.342 -19.0341L268.785 -140.833V-352.549M499.342 -19.0341L555.896 11.6154M705.356 -125.165L946.908 -253.632V-459.951M705.356 -125.165L488.987 -256.941V-462.031M705.356 -125.165L758.416 -95.8329M306.319 312.722L509.089 207.723M509.089 207.723L716.108 98.4414M509.089 207.723L560.204 234.546M716.108 98.4414L917.52 -7.87995M716.108 98.4414L765.788 125.365M716.108 98.4414L661.784 69.0008M917.52 -7.87995L1164.61 -141.58V-353.26M917.52 -7.87995L966.109 18.9801M917.52 -7.87995L862.581 -38.2503M519.015 422.639L719.027 317.893M719.027 317.893L923.564 210.871M719.027 317.893L771.461 346.742L823.895 375.592M719.027 317.893L668.643 291.453M923.564 210.871L1123.75 106.125M923.564 210.871L976.569 239.112L1029.57 267.353M923.564 210.871L871.04 182.406M1123.75 106.125L1377.68 -31.8025V-248.906M1123.75 106.125L1175.7 134.763M1123.75 106.125L1068.9 75.8035M914.378 425.377L869.136 400.484L823.895 375.592M1123.75 317.531L1076.66 292.442L1029.57 267.353M1322.01 215.412L1274.7 189.332L1227.39 163.253M488.987 -462.031V-700.223M488.987 -462.031L268.785 -352.549M488.987 -462.031L714.194 -574M488.987 -700.223V-905.594M488.987 -700.223L714.194 -815.568M488.987 -700.223L268.785 -587.441M488.987 -905.594V-1118.67M488.987 -905.594L268.785 -791.162M488.987 -905.594L714.194 -1026.19M268.785 -352.549V-587.441M268.785 -352.549L58.5912 -248.045M268.785 -587.441V-791.162M268.785 -587.441L58.5912 -479.786M268.785 -791.162V-1005.37M268.785 -791.162L58.5912 -681.931M58.5912 -248.045V-479.786M58.5912 -248.045L-149.1 -144.784M58.5912 -479.786V-681.931M58.5912 -479.786L-149.1 -373.412M58.5912 -681.931V-898.264M58.5912 -681.931L-149.1 -574M946.908 -459.951V-698.081M946.908 -459.951L714.194 -574M946.908 -459.951L1164.61 -353.26M946.908 -698.081V-906.984M946.908 -698.081L1164.61 -588.174M946.908 -698.081L714.194 -815.568M946.908 -906.984V-1115.37M946.908 -906.984L714.194 -1026.19M946.908 -906.984L1164.61 -795.467M1164.61 -353.26V-588.174M1164.61 -353.26L1377.68 -248.906M1164.61 -588.174V-795.467M1164.61 -588.174L1377.68 -480.565M1164.61 -795.467V-1005.37M1164.61 -795.467L1377.68 -686.232M1377.68 -248.906V-480.565M1377.68 -248.906L1590 -144.784M1377.68 -480.565V-686.232M1377.68 -480.565L1590 -373.412M1377.68 -686.232V-899.044M1377.68 -686.232L1590 -577.563M714.194 -574V-634.392M714.194 -574V-523.853M714.194 -815.568V-867.333M714.194 -815.568V-755.176M714.194 -1026.19V-1071.91M714.194 -1026.19V-970.863M714.194 -373.412L771.989 -343.664M714.194 -373.412L661.973 -346.143M714.194 -373.412V-421.412M714.194 -1234L661.973 -1207.26M714.194 -1234L771.989 -1204.83M714.194 -1234V-1181.16M-149.1 77.3725L-87.4392 109.237M-149.1 77.3725L-93.1863 48.1763M-149.1 77.3725V19.5612M1590 77.3725L1539.59 51.4269M1590 77.3725L1512.59 117.247M1590 77.3725V19.5612M627.734 478.822L823.895 375.592M627.734 478.822L575.525 451.842M627.734 478.822L673.38 502.411M1489.18 25.4811L1227.39 163.253M1489.18 25.4811L1435.17 -2.31793M1489.18 25.4811L1539.59 51.4269M1489.18 25.4811V-842.796M823.895 375.592L1029.57 267.353M1029.57 267.353L1227.39 163.253M1227.39 163.253L1175.7 134.763M575.525 451.842L471.107 397.881M575.525 451.842L1175.7 134.763M1435.17 -2.31793L1322.01 -60.5651M1435.17 -2.31793L1175.7 134.763M1435.17 -2.31793V-870.059M673.38 502.411L719.027 526L764.823 502.411M673.38 502.411L1539.59 51.4269M1539.59 51.4269V-817.35M417.998 370.435L471.107 397.881M417.998 370.435L360.388 340.664M417.998 370.435L616.323 263.996M1270.48 -87.0849L1322.01 -60.5651M1270.48 -87.0849L1217.34 -114.441M1270.48 -87.0849L1018.69 48.0488M1270.48 -87.0849V-953.192M471.107 397.881L668.643 291.453M1322.01 -60.5651L1068.9 75.8035M1322.01 -60.5651V-927.184M360.388 340.664L255.07 286.238M360.388 340.664L560.204 234.546M1217.34 -114.441L1109.32 -170.039M1217.34 -114.441L966.109 18.9801M1217.34 -114.441V-980.021M204.661 260.188L255.07 286.238M204.661 260.188L145.251 229.486M204.661 260.188L609.752 40.8021M1052.79 -199.135L1109.32 -170.039M1052.79 -199.135L1002.2 -225.174M1052.79 -199.135L809.699 -67.4837M1052.79 -199.135V-1063.08M255.07 286.238L661.784 69.0008M1109.32 -170.039L862.581 -38.2503M1109.32 -170.039V-1034.55M145.251 229.486L555.896 11.6154M145.251 229.486L29.7724 169.81M1002.2 -225.174L758.416 -95.8329M1002.2 -225.174L885.179 -285.405M1002.2 -225.174V-1088.62M668.643 291.453L616.323 263.996M668.643 291.453L871.04 182.406M616.323 263.996L560.204 234.546M616.323 263.996L819.944 154.715M560.204 234.546L765.788 125.365M871.04 182.406L819.944 154.715M871.04 182.406L1068.9 75.8035M765.788 125.365L819.944 154.715M765.788 125.365L966.109 18.9801M819.944 154.715L1018.69 48.0488M661.784 69.0008L609.752 40.8021M661.784 69.0008L862.581 -38.2503M609.752 40.8021L555.896 11.6154M609.752 40.8021L809.699 -67.4837M555.896 11.6154L758.416 -95.8329M1068.9 75.8035L1018.69 48.0488M1018.69 48.0488L966.109 18.9801M862.581 -38.2503L809.699 -67.4837M809.699 -67.4837L758.416 -95.8329M-25.7786 141.102L829.783 -313.917M-25.7786 141.102L29.7724 169.81M-25.7786 141.102L-87.4392 109.237M829.783 -313.917L885.179 -285.405M829.783 -313.917L771.989 -343.664M829.783 -313.917V-1175.65M29.7724 169.81L885.179 -285.405M885.179 -285.405V-1147.69M-87.4392 109.237L771.989 -343.664M771.989 -343.664V-1204.83M-37.2727 18.9801L810.618 478.822M-37.2727 18.9801L-93.1863 48.1763M-37.2727 18.9801L14.1668 -7.87995M-37.2727 18.9801V-849.172M810.618 478.822L764.823 502.411M810.618 478.822L862.581 452.057M165.852 -87.0849L1011.03 375.592M165.852 -87.0849L114.646 -60.3468M165.852 -87.0849L218.241 -114.441M165.852 -87.0849V-953.192M1011.03 375.592L962.705 400.484M1011.03 375.592L1067.04 346.742M380.437 -199.135L1217.34 269.327M380.437 -199.135L324.716 -170.039M380.437 -199.135L438.702 -229.558M380.437 -199.135V-1063.08M1217.34 269.327L1172.46 292.442M1217.34 269.327L1270.48 241.951M609.752 -318.875L1435.17 157.122M609.752 -318.875L545.653 -285.405M609.752 -318.875L661.973 -346.143M609.752 -318.875V-1180.51M1435.17 157.122L1372.64 189.332M1435.17 157.122L1512.59 117.247M-93.1863 48.1763L764.823 502.411M-93.1863 48.1763V-820.538M14.1668 -7.87995L862.581 452.057M14.1668 -7.87995L114.646 -60.3468M14.1668 -7.87995V-875.514M862.581 452.057L962.705 400.484M114.646 -60.3468L962.705 400.484M114.646 -60.3468V-926.969M218.241 -114.441L1067.04 346.742M218.241 -114.441L324.716 -170.039M218.241 -114.441V-980.021M1067.04 346.742L1172.46 292.442M324.716 -170.039L1172.46 292.442M324.716 -170.039V-1034.55M438.702 -229.558L1270.48 241.951M438.702 -229.558L545.653 -285.405M438.702 -229.558V-1092.92M1270.48 241.951L1372.64 189.332M545.653 -285.405L1372.64 189.332M545.653 -285.405V-1147.69M661.973 -346.143L1512.59 117.247M661.973 -346.143V-1207.26M-93.1863 -820.538L-149.1 -791.905V-743.344M-93.1863 -820.538L-37.2727 -849.172M-37.2727 -849.172L14.1668 -875.514M14.1668 -875.514L114.646 -926.969M114.646 -926.969L165.852 -953.192M165.852 -953.192L218.241 -980.021M218.241 -980.021L324.716 -1034.55M324.716 -1034.55L380.437 -1063.08M380.437 -1063.08L438.702 -1092.92M438.702 -1092.92L545.653 -1147.69M545.653 -1147.69L609.752 -1180.51M609.752 -1180.51L661.973 -1207.26M771.989 -1204.83L829.783 -1175.65M829.783 -1175.65L885.179 -1147.69M885.179 -1147.69L1002.2 -1088.62M1002.2 -1088.62L1052.79 -1063.08M1052.79 -1063.08L1109.32 -1034.55M1109.32 -1034.55L1217.34 -980.021M1217.34 -980.021L1270.48 -953.192M1270.48 -953.192L1322.01 -927.184M1322.01 -927.184L1435.17 -870.059M1435.17 -870.059L1489.18 -842.796M1489.18 -842.796L1539.59 -817.35M1539.59 -817.35L1590 -791.905V-743.344M-149.1 -38.2503L714.194 -473.706M-149.1 -38.2503V-87.0849M-149.1 -38.2503V19.5612M714.194 -473.706L1590 -38.2503M714.194 -473.706V-523.853M714.194 -473.706V-421.412M1590 -38.2503V-95.8329M1590 -38.2503V19.5612M-150 -267.457L714.194 -694.784M714.194 -694.784L1590 -267.457M714.194 -694.784V-755.176M714.194 -694.784V-634.392M1590 -267.457V-323.027M1590 -267.457V-207.333M-149.1 -476.223L714.194 -915.535M-149.1 -476.223V-527.085M-149.1 -476.223V-421.412M714.194 -915.535L1590 -473.706M714.194 -915.535V-970.863M714.194 -915.535V-867.333M1590 -473.706V-527.085M1590 -473.706V-421.412M-149.1 -694.784L714.194 -1128.31M-149.1 -694.784V-743.344M-149.1 -694.784V-633.75M714.194 -1128.31L1590 -694.784M714.194 -1128.31V-1181.16M714.194 -1128.31V-1071.91M1590 -694.784V-743.344M1590 -694.784V-637.313M-149.1 -743.344L714.194 -1181.16M714.194 -1181.16L1590 -743.344M1590 -637.313L714.194 -1071.91M1590 -637.313V-527.085M714.194 -1071.91L-149.1 -633.75M-149.1 -633.75V-527.085M-149.1 -527.085L714.194 -970.863M714.194 -970.863L1590 -527.085M1590 -421.412L714.194 -867.333M1590 -421.412V-323.027M714.194 -867.333L-149.1 -421.412M-149.1 -421.412V-318.875M-149.1 -318.875L714.194 -755.176M-149.1 -318.875V-207.333M714.194 -755.176L1590 -323.027M1590 -207.333L714.194 -634.392M1590 -207.333V-95.8329M714.194 -634.392L-149.1 -207.333M-149.1 -207.333V-87.0849M-149.1 -87.0849L714.194 -523.853M714.194 -523.853L1590 -95.8329M1590 19.5612L714.194 -421.412M714.194 -421.412L-149.1 19.5612" stroke="url(#paint0_radial_15618_10710)"/>
<defs>
<radialGradient id="paint0_radial_15618_10710" cx="0" cy="0" r="1" gradientUnits="userSpaceOnUse" gradientTransform="translate(773.737 -403.28) rotate(-90) scale(929.28 923.737)">
<stop offset="0.505615" stop-color="#552EE0" stop-opacity="0"/>
<stop offset="1" stop-color="#552EE0"/>
</radialGradient>
</defs>
</svg>
