<svg width="117" height="28" viewBox="0 0 117 28" fill="none" xmlns="http://www.w3.org/2000/svg">
<path d="M11.2754 8.59501H21.9342V12.8108H7.632L0.0791016 7.81418V0.324341H21.9393L21.941 4.63947H6.25536V5.33983L11.2754 8.59501Z" fill="#7553F0"/>
<path d="M29.2993 19.5055V20.2057L34.3197 23.4587H44.9793V27.6757H30.676L23.1226 22.6797V15.1892H44.9844V19.5055H29.2993Z" fill="#7553F0"/>
<path d="M45.5752 0.324341V7.35946L37.4757 12.8108H24.3597V8.86086H34.7674L35.7794 8.31521H24.3042V0.326057H30.1091V4.50938H39.4425V0.324341H45.5752Z" fill="#7553F0"/>
<path d="M69.21 5.82985V12.8108H47.3481V9.0141H63.6275V8.61435H47.399V4.89826H59.2358L58.7286 4.54827H47.4482V0.324341H60.8422L69.21 5.82985Z" fill="#7553F0"/>
<path d="M77.2428 4.29607V4.74728H92.7436V8.26093H77.0449V8.6092H92.8443V12.8108H79.4989L71.5732 7.42884V0.581688H71.8249V0.324341H92.8443V4.29607H77.2428Z" fill="#7553F0"/>
<path d="M116.479 8.46628H109.593L116.175 12.8108H106.752L95.208 5.10625H108.185L107.843 4.8181L95.2199 4.82839V0.329486H95.4743C96.0206 0.329486 110.045 0.324341 110.045 0.324341H110.123L116.479 4.72034V8.46628Z" fill="#7553F0"/>
<path d="M52.6659 15.1892H46.7573V27.6757H52.6659V15.1892Z" fill="#7553F0"/>
<path d="M76.3003 15.1892V19.3753H68.4483V27.6757H62.8813V19.3753H55.0293V15.1892H76.3003Z" fill="#7553F0"/>
<path d="M99.3437 15.1892V21.9006L91.7076 27.6757H79.2627V24.261H89.3698L90.9083 22.907H79.2544V15.1892H84.243V19.7097H94.1919V15.1892H99.3437Z" fill="#7553F0"/>
</svg>
