<svg width="211" height="33" viewBox="0 0 211 33" fill="none" xmlns="http://www.w3.org/2000/svg">
<g clip-path="url(#clip0_16155_10206)">
<path d="M2.44173 25.3964C4.44254 24.1746 4.66081 21.6927 4.66081 18.5236C4.66081 18.4855 4.66081 18.4473 4.66081 18.4473C4.36976 18.4473 4.04235 18.4473 3.75134 18.4473C2.29621 18.4473 1.56865 19.2873 1.67779 20.6236H0.986601C0.622822 19.9364 0.440929 19.1727 0.440929 18.4091C0.440929 15.4309 2.36897 14.5145 4.66081 14.1327C4.66081 13.8273 4.66081 13.5218 4.66081 13.2164C4.66081 10.9636 5.60663 10.0855 6.91624 9.20729L9.79012 7.22182H4.73355C1.78692 7.22182 1.78692 3.48 2.44173 0.845459L3.24205 0.883641C3.46033 2.10546 4.47889 2.56364 5.89764 2.56364H15.8289C23.4683 2.56364 26.1603 7.98545 26.1603 15.2782C26.1603 19.2491 25.1053 23.0673 23.7593 25.9309L14.6648 31.2C12.8459 29.8255 10.6996 29.0618 8.37138 29.0618C5.71576 29.0618 3.06016 30.1691 1.09574 32.04H0.0771484C1.56865 29.0237 4.15149 26.4655 7.64379 25.4346C9.06254 23.9837 10.6268 22.5709 10.6268 19.7073V12.8346C10.6268 10.4291 11.0633 8.55818 12.2274 7.22182H11.0997C10.0084 8.29093 9.35359 9.35999 9.35359 11.46V14.4382V18.3327C9.35359 23.0673 6.1523 25.4346 2.76913 26.3127L2.44173 25.3964ZM14.592 25.32C16.2654 25.7782 17.8297 26.58 19.1757 27.6491C20.4125 24.48 21.2129 20.9673 21.2129 16.8054L14.592 20.3564C14.592 21.9982 14.592 23.6782 14.592 25.32ZM14.592 7.26002C14.592 9.81818 14.592 12.3764 14.592 14.9727L20.5944 11.7654C19.976 9.78002 18.8483 8.25273 17.0294 7.60365C16.2654 7.29818 15.4287 7.26002 14.592 7.26002ZM13.5734 25.0909C13.5734 19.2109 13.5734 13.3309 13.5734 7.45091C12.0819 8.55818 11.6454 10.2764 11.6454 12.8727V19.7455C11.6454 22.1509 10.6268 23.7164 9.46272 25.0146C10.0447 24.9382 10.6632 24.9 11.2816 24.9C12.0456 24.9 12.8095 24.9764 13.5734 25.0909ZM14.592 16.1946C14.592 17.1491 14.592 18.1418 14.592 19.1346L21.2129 15.6218C21.1401 14.6291 21.0673 13.7127 20.8854 12.8727L14.592 16.1946ZM38.5471 26.0455L39.2381 26.8854L33.7815 31.0091L29.7799 27.7255L28.5794 28.6418L28.0338 27.9164L30.3256 26.2746V16.1946L29.0887 14.5527L27.7063 15.4691L27.1971 14.7436L32.0717 11.2691L34.7274 14.2854L37.2737 11.2309H37.6376C38.0015 11.8036 38.6198 12.1855 39.2746 12.1855C40.0385 12.1855 40.6207 11.7654 40.9116 11.2309H42.003C41.6029 15.9655 39.4929 16.5764 38.4015 16.5764C37.6011 16.5764 36.328 16.1946 35.1275 15.0109V26.2746L36.5827 27.4582L38.5471 26.0455ZM48.7011 24.9764L52.8847 27.9164V16.92L48.7011 14.0182V24.9764ZM42.7713 28.26L42.153 27.42L44.0083 25.8545C44.0083 22.5709 44.0083 19.2873 44.0083 16.0036L52.1934 11.0782L57.4318 15.2782V25.7018L49.3924 30.8564L44.2992 26.9618L42.7713 28.26ZM65.8812 24.9764L70.0648 27.9164V16.92L65.8812 14.0182V24.9764ZM59.9515 28.26L59.3332 27.42L61.1884 25.8545C61.1884 22.5709 61.1884 19.2873 61.1884 16.0036L69.3735 11.0782L74.612 15.2782V25.7018L66.5725 30.8564L61.4794 26.9618L59.9515 28.26ZM94.3387 27.9927L90.3369 31.3909L86.7355 28.1073L88.2634 26.6182V17.2255L85.7533 14.82L84.1527 15.8127V26.6182L85.7171 28.1073L82.2248 31.3909L78.0412 27.9164L79.4599 26.6182V16.5L78.0412 14.8582L76.6589 15.7745L76.1494 15.0109L81.2061 11.3837L83.8618 14.5145L88.6272 11.3837L92.2652 14.6291L97.2489 11.3837L101.032 14.7818L102.233 13.7891L102.887 14.5909L101.069 16.1564V25.74L102.778 27.5346L104.343 26.3127V27.7255L98.9585 31.3909L95.3571 28.1073L96.885 26.6182V17.2255L94.3749 14.82L92.447 16.0418V26.2364L94.3387 27.9927ZM108.507 25.3964C110.508 24.1746 110.726 21.6927 110.726 18.5236C110.726 18.4855 110.726 18.4473 110.726 18.4473C110.435 18.4473 110.107 18.4473 109.816 18.4473C108.361 18.4473 107.634 19.2873 107.743 20.6236H107.052C106.688 19.9364 106.506 19.1727 106.506 18.4091C106.506 15.4309 108.434 14.5145 110.726 14.1327C110.726 13.8273 110.726 13.5218 110.726 13.2164C110.726 10.9636 111.672 10.0855 112.981 9.20729L115.855 7.22182H110.799C107.852 7.22182 107.852 3.48 108.507 0.845459L109.307 0.883641C109.525 2.10546 110.544 2.56364 111.963 2.56364H121.894C129.533 2.56364 132.225 7.98545 132.225 15.2782C132.225 19.2491 131.17 23.0673 129.824 25.9309L120.73 31.2C118.911 29.8255 116.764 29.0618 114.437 29.0618C111.781 29.0618 109.125 30.1691 107.161 32.04H106.142C107.634 29.0237 110.216 26.4655 113.709 25.4346C115.127 23.9837 116.692 22.5709 116.692 19.7073V12.8346C116.692 10.4291 117.128 8.55818 118.292 7.22182H117.165C116.074 8.29093 115.419 9.35999 115.419 11.46V14.4382V18.3327C115.419 23.0673 112.217 25.4346 108.834 26.3127L108.507 25.3964ZM120.657 25.32C122.33 25.7782 123.895 26.58 125.241 27.6491C126.477 24.48 127.278 20.9673 127.278 16.8054L120.657 20.3564C120.657 21.9982 120.657 23.6782 120.657 25.32ZM120.657 7.26002C120.657 9.81818 120.657 12.3764 120.657 14.9727L126.66 11.7654C126.041 9.78002 124.913 8.25273 123.094 7.60365C122.33 7.29818 121.494 7.26002 120.657 7.26002ZM119.638 25.0909C119.638 19.2109 119.638 13.3309 119.638 7.45091C118.147 8.55818 117.711 10.2764 117.711 12.8727V19.7455C117.711 22.1509 116.692 23.7164 115.528 25.0146C116.11 24.9382 116.728 24.9 117.347 24.9C118.111 24.9 118.875 24.9764 119.638 25.0909ZM120.657 16.1946C120.657 17.1491 120.657 18.1418 120.657 19.1346L127.278 15.6218C127.205 14.6291 127.132 13.7127 126.95 12.8727L120.657 16.1946ZM144.612 26.0455L145.303 26.8854L139.846 31.0091L135.845 27.7255L134.644 28.6418L134.099 27.9164L136.391 26.2746V16.1946L135.154 14.5527L133.771 15.4691L133.262 14.7436L138.137 11.2691L140.792 14.2854L143.339 11.2309H143.703C144.067 11.8036 144.685 12.1855 145.34 12.1855C146.104 12.1855 146.686 11.7654 146.977 11.2309H148.068C147.668 15.9655 145.558 16.5764 144.467 16.5764C143.666 16.5764 142.393 16.1946 141.193 15.0109V26.2746L142.648 27.4582L144.612 26.0455ZM154.766 24.9764L158.95 27.9164V16.92L154.766 14.0182V24.9764ZM148.836 28.26L148.218 27.42L150.073 25.8545C150.073 22.5709 150.073 19.2873 150.073 16.0036L158.258 11.0782L163.497 15.2782V25.7018L155.457 30.8564L150.364 26.9618L148.836 28.26ZM171.946 24.9764L176.13 27.9164V16.92L171.946 14.0182V24.9764ZM166.017 28.26L165.398 27.42L167.253 25.8545C167.253 22.5709 167.253 19.2873 167.253 16.0036L175.439 11.0782L180.677 15.2782V25.7018L172.638 30.8564L167.544 26.9618L166.017 28.26ZM200.404 27.9927L196.402 31.3909L192.8 28.1073L194.328 26.6182V17.2255L191.818 14.82L190.218 15.8127V26.6182L191.782 28.1073L188.29 31.3909L184.106 27.9164L185.525 26.6182V16.5L184.106 14.8582L182.724 15.7745L182.214 15.0109L187.271 11.3837L189.927 14.5145L194.692 11.3837L198.33 14.6291L203.314 11.3837L207.097 14.7818L208.298 13.7891L208.952 14.5909L207.134 16.1564V25.74L208.843 27.5346L210.408 26.3127V27.7255L205.024 31.3909L201.422 28.1073L202.95 26.6182V17.2255L200.44 14.82L198.512 16.0418V26.2364L200.404 27.9927Z" fill="white"/>
</g>
<defs>
<clipPath id="clip0_16155_10206">
<rect width="210.425" height="31.5" fill="white" transform="translate(0 0.75)"/>
</clipPath>
</defs>
</svg>
