<svg width="140" height="28" viewBox="0 0 140 28" fill="none" xmlns="http://www.w3.org/2000/svg">
<g clip-path="url(#clip0_16179_618)">
<path d="M44.3025 7.23583H48.0618V17.0641H44.3025V13.444H38.8885V17.0641H35.2407V7.23583H38.8885V10.4979H44.3025V7.23583Z" fill="#8492A5"/>
<path d="M56.7245 13.0174L55.4217 10.4431L54.1191 13.0174H56.7245ZM57.378 7.23589L62.6306 17.0642H58.4132L57.6787 15.2469H53.151L52.4164 17.0642H48.1992L53.4654 7.23589H57.378Z" fill="#8492A5"/>
<path d="M65.5842 12.15C65.6188 13.09 65.8248 13.5787 66.451 13.898C66.7742 14.0629 67.1376 14.1271 67.4988 14.1271H69.2001C69.4884 14.1271 69.7776 14.0918 70.052 14.001C70.6444 13.8051 70.7453 13.5397 70.9236 13.076L74.6752 13.0448C74.2457 16.7202 71.0393 17.0642 69.3902 17.0642H67.2281C65.4541 17.0642 62.0034 16.6787 62.0034 12.15C62.0034 7.6351 65.4541 7.23589 67.2281 7.23589H69.3902C71.0393 7.23589 74.2457 7.61729 74.6752 11.2926L70.909 11.2894C70.8652 10.884 70.2822 10.2845 69.5566 10.2233H67.3599C67.0759 10.2233 66.7896 10.2628 66.5284 10.3764C65.9301 10.6364 65.5486 11.1774 65.5842 12.15Z" fill="#8492A5"/>
<path d="M89.2961 7.23557L84.3735 12.1568L89.2961 17.1379H84.484L81.0427 13.6749H79.4036V17.071H75.7285V7.24259H79.4036V10.7078H81.0427L84.484 7.23557H89.2961Z" fill="#8492A5"/>
<path d="M100.641 13.9483V17.0642H89.6709V7.23589H93.3324V13.9483H100.641Z" fill="#8492A5"/>
<path d="M112.745 7.23589V9.94764H105.469V10.8974H112.745V13.4715H105.469V14.3525H112.745V17.0642H101.857V7.23589H112.745Z" fill="#8492A5"/>
<path d="M126.399 14.3032C126.3 15.4302 124.965 17.1535 120.338 17.1536L118.426 17.1061C114.108 17.1061 113.686 14.7594 113.686 13.628L117.534 13.6957C117.675 14.007 117.796 14.3135 118.382 14.5118C118.687 14.6149 118.877 14.6331 119.207 14.6592L119.561 14.678C119.985 14.688 120.416 14.6602 120.839 14.6264C121.186 14.5987 121.453 14.5624 121.673 14.5024C122.239 14.3477 122.53 14.1206 122.5 13.8146C122.354 12.2975 113.94 14.6335 113.641 10.2957C113.605 9.77099 113.944 7.23772 118.398 7.13264H120.198C124.501 7.13264 125.675 7.69845 126.334 10.4781L122.408 10.4685C122.262 10.0648 121.627 9.76889 120.792 9.64817C120.666 9.63004 120.125 9.57401 119.876 9.57185C119.307 9.56676 119.245 9.58195 118.917 9.60738C118.132 9.68228 117.48 9.97379 117.48 10.323C117.48 11.8574 126.818 9.54993 126.399 14.3032Z" fill="#8492A5"/>
<path d="M139.793 14.3031C139.693 15.4302 138.358 17.1534 133.732 17.1535L131.82 17.106C127.502 17.106 127.08 14.7593 127.08 13.6279L130.927 13.6956C131.069 14.0069 131.19 14.3134 131.776 14.5117C132.081 14.6149 132.27 14.633 132.6 14.6591L132.954 14.6779C133.379 14.688 133.81 14.6601 134.233 14.6264C134.58 14.5987 134.846 14.5624 135.066 14.5024C135.632 14.3476 135.923 14.1206 135.894 13.8145C135.748 12.2975 127.333 14.6335 127.035 10.2956C126.998 9.77093 127.337 7.23766 131.791 7.13257H133.591C137.895 7.13257 139.068 7.69839 139.727 10.478L135.802 10.4685C135.655 10.0647 135.02 9.76883 134.185 9.64811C134.06 9.62998 133.519 9.57395 133.269 9.57179C132.7 9.56669 132.638 9.58189 132.31 9.60731C131.525 9.68222 130.873 9.97373 130.873 10.3229C130.873 11.8573 140.212 9.54987 139.793 14.3031Z" fill="#8492A5"/>
<path d="M21.3656 17.0157C21.3656 12.8942 21.3656 8.78211 21.3656 4.59442C21.0993 4.76991 20.8883 4.92765 20.6611 5.05499C19.9596 5.44835 19.2534 5.83294 18.5462 6.21538C18.1002 6.45652 17.6493 6.68759 17.2004 6.92301C17.0015 7.02743 16.8864 7.15734 16.8905 7.42319C16.9077 8.55731 16.8909 9.69185 16.9029 10.8261C16.9057 11.0909 16.8452 11.1908 16.5648 11.1895C14.295 11.1784 12.0251 11.1833 9.75523 11.1833C9.66694 11.1833 9.57864 11.1833 9.48921 11.1833C9.48343 11.0792 9.47755 11.0224 9.47749 10.9655C9.4769 9.79302 9.46886 8.62035 9.48441 7.44801C9.48725 7.23359 9.41239 7.11663 9.25129 7.02633C8.92891 6.84568 8.60799 6.6615 8.28048 6.4908C7.78615 6.23315 7.28751 5.98403 6.78904 5.7347C6.40313 5.54166 6.01102 5.36103 5.62877 5.16071C5.40618 5.04428 5.19742 4.89982 4.94395 4.74423C4.94395 8.83371 4.94395 12.8691 4.94395 16.8794C6.44443 17.712 7.9357 18.5396 9.42853 19.368C9.45614 19.3109 9.47096 19.2945 9.47096 19.2781C9.47348 17.9914 9.47617 16.7045 9.47267 15.4177C9.4725 15.3527 9.43439 15.2685 9.38633 15.2259C9.00287 14.8866 8.60717 14.5615 8.22697 14.2184C8.05324 14.0616 7.90588 13.8742 7.71009 13.6609C11.3251 13.6609 14.8651 13.6609 18.5011 13.6609C18.2893 13.848 18.1416 13.9819 17.9902 14.1112C17.7491 14.3171 17.5192 14.5412 17.2589 14.7176C17.0324 14.8709 16.8945 15.0397 16.8957 15.3283C16.9007 16.5581 16.8975 17.7878 16.8984 19.0175C16.8984 19.1088 16.9066 19.2001 16.9144 19.3644C18.4294 18.565 19.893 17.7928 21.3656 17.0157ZM13.1423 0.586742C16.9758 0.586742 20.8094 0.599583 24.6428 0.573473C25.2471 0.569407 25.67 1.06828 25.6652 1.63906C25.6572 2.56383 25.6631 3.48881 25.6631 4.41358C25.6631 9.53361 25.6547 14.6535 25.6723 19.7734C25.675 20.5219 25.4619 21.0204 24.7325 21.2806C24.2256 21.4616 23.7566 21.7543 23.27 21.9959C22.472 22.3921 21.6732 22.7869 20.8751 23.1833C20.2971 23.47 19.7194 23.7577 19.1425 24.0469C18.5755 24.331 18.01 24.6184 17.4432 24.9034C16.9518 25.1501 16.4592 25.3945 15.9676 25.6413C15.3906 25.9311 14.8131 26.2201 14.2376 26.5132C13.9349 26.6672 13.6446 26.8522 13.3316 26.9782C13.1691 27.0435 12.95 27.0677 12.7901 27.011C12.4775 26.9001 12.189 26.7186 11.8899 26.5678C11.627 26.4351 11.3622 26.3062 11.1 26.1725C10.4947 25.8636 9.89101 25.5518 9.28557 25.2432C8.61199 24.9001 7.93612 24.5615 7.26341 24.2166C6.72691 23.9414 6.19422 23.6584 5.65915 23.3802C5.09268 23.0857 4.52611 22.7916 3.95839 22.4995C3.47001 22.2482 2.97633 22.0074 2.49187 21.7485C1.9899 21.4803 1.50054 21.1872 0.997013 20.9221C0.744681 20.7891 0.674145 20.5568 0.615826 20.3119C0.594322 20.2217 0.610775 20.122 0.610775 20.0267C0.610694 13.8866 0.618269 7.74648 0.599128 1.60632C0.597172 0.985456 1.01648 0.571974 1.61384 0.575399C5.45652 0.597443 9.29944 0.586742 13.1423 0.586742Z" fill="#8492A5"/>
</g>
<defs>
<clipPath id="clip0_16179_618">
<rect width="139.443" height="27.3513" fill="white" transform="translate(0.363281 0.324341)"/>
</clipPath>
</defs>
</svg>
