<svg width="97" height="17" viewBox="0 0 97 17" fill="none" xmlns="http://www.w3.org/2000/svg">
<path d="M7.53287 16.1631C6.17256 16.1631 4.94058 15.8592 3.83694 15.2515C2.74612 14.6306 1.8863 13.7785 1.25748 12.6952C0.641492 11.6119 0.333496 10.3898 0.333496 9.0291C0.333496 7.66836 0.647903 6.44634 1.27673 5.36303C1.90555 4.27973 2.76537 3.43422 3.85619 2.82651C4.95983 2.20559 6.19181 1.89513 7.55212 1.89513C8.65577 1.89513 9.66316 2.0933 10.5743 2.48963C11.4855 2.88596 12.2555 3.46064 12.8843 4.21367L11.2673 5.77918C10.292 4.69588 9.09209 4.15422 7.66762 4.15422C6.74363 4.15422 5.9159 4.3656 5.18441 4.78835C4.45292 5.1979 3.88185 5.77258 3.47119 6.5124C3.06053 7.25221 2.8552 8.09112 2.8552 9.0291C2.8552 9.96709 3.06053 10.806 3.47119 11.5458C3.88185 12.2856 4.45292 12.8669 5.18441 13.2897C5.9159 13.6992 6.74363 13.904 7.66762 13.904C9.09209 13.904 10.292 13.3557 11.2673 12.2592L12.8843 13.8445C12.2555 14.5976 11.479 15.1722 10.5551 15.5686C9.64391 15.9649 8.63652 16.1631 7.53287 16.1631Z" fill="white"/>
<path d="M24.7212 5.38285V15.9649H22.4305V14.6174C22.0455 15.093 21.5642 15.4629 20.9867 15.7271C20.4092 15.9781 19.7868 16.1036 19.1195 16.1036C17.7464 16.1036 16.662 15.7139 15.8663 14.9344C15.0835 14.1418 14.6921 12.9726 14.6921 11.4269V5.38285H17.0983V11.09C17.0983 12.0412 17.3036 12.7546 17.7143 13.2302C18.1378 13.6926 18.7345 13.9238 19.5045 13.9238C20.3643 13.9238 21.0445 13.653 21.545 13.1113C22.0583 12.5565 22.315 11.7638 22.315 10.7333V5.38285H24.7212Z" fill="white"/>
<path d="M33.5695 5.26395C34.5705 5.26395 35.4624 5.48854 36.2452 5.93772C37.0409 6.38689 37.6633 7.02102 38.1125 7.84011C38.5616 8.65919 38.7862 9.60378 38.7862 10.6739C38.7862 11.744 38.5616 12.6952 38.1125 13.5275C37.6633 14.3466 37.0409 14.9807 36.2452 15.4299C35.4624 15.879 34.5705 16.1036 33.5695 16.1036C32.8637 16.1036 32.2156 15.9781 31.6253 15.7271C31.0478 15.4761 30.5602 15.0996 30.1624 14.5976V15.9649H27.8716V1.261H30.2779V6.67093C30.6885 6.20854 31.1698 5.85845 31.7216 5.62065C32.2862 5.38285 32.9022 5.26395 33.5695 5.26395ZM33.3 13.9833C34.1855 13.9833 34.9106 13.6794 35.4753 13.0717C36.0528 12.464 36.3415 11.6647 36.3415 10.6739C36.3415 9.68305 36.0528 8.88378 35.4753 8.27607C34.9106 7.66836 34.1855 7.36451 33.3 7.36451C32.7226 7.36451 32.2028 7.50323 31.7408 7.78066C31.2788 8.04488 30.9131 8.428 30.6436 8.93002C30.3741 9.43204 30.2394 10.0133 30.2394 10.6739C30.2394 11.3344 30.3741 11.9157 30.6436 12.4177C30.9131 12.9198 31.2788 13.3095 31.7408 13.5869C32.2028 13.8511 32.7226 13.9833 33.3 13.9833Z" fill="white"/>
<path d="M50.7315 10.7333C50.7315 10.9051 50.7187 11.1495 50.693 11.4665H42.6274C42.7686 12.246 43.1343 12.8669 43.7246 13.3293C44.3278 13.7785 45.0721 14.0031 45.9576 14.0031C47.0869 14.0031 48.0173 13.6199 48.7488 12.8537L50.0385 14.3796C49.5765 14.9477 48.9926 15.377 48.2868 15.6677C47.581 15.9583 46.7853 16.1036 45.8999 16.1036C44.7705 16.1036 43.776 15.8724 42.9162 15.41C42.0563 14.9477 41.389 14.3069 40.9142 13.4878C40.4522 12.6555 40.2212 11.7176 40.2212 10.6739C40.2212 9.64342 40.4458 8.71864 40.8949 7.89956C41.3569 7.06726 41.9922 6.41992 42.8007 5.95753C43.6091 5.49515 44.5203 5.26395 45.5341 5.26395C46.5351 5.26395 47.427 5.49515 48.2098 5.95753C49.0055 6.40671 49.6215 7.04744 50.0578 7.87974C50.5069 8.69883 50.7315 9.65002 50.7315 10.7333ZM45.5341 7.24561C44.7641 7.24561 44.1096 7.48341 43.5707 7.95901C43.0445 8.42139 42.7237 9.04231 42.6082 9.82177H48.4408C48.3382 9.05552 48.0237 8.43461 47.4976 7.95901C46.9714 7.48341 46.3169 7.24561 45.5341 7.24561Z" fill="white"/>
<path d="M55.3335 6.92854C56.0265 5.81882 57.2457 5.26395 58.991 5.26395V7.62213C58.7857 7.58249 58.5996 7.56267 58.4327 7.56267C57.4959 7.56267 56.7644 7.84671 56.2383 8.41479C55.7121 8.96965 55.449 9.77553 55.449 10.8324V15.9649H53.0428V5.38285H55.3335V6.92854Z" fill="white"/>
<path d="M61.0322 5.38285H63.4384V15.9649H61.0322V5.38285ZM62.2449 3.63899C61.8086 3.63899 61.4429 3.50028 61.1477 3.22284C60.8525 2.9322 60.705 2.5755 60.705 2.15275C60.705 1.72999 60.8525 1.3799 61.1477 1.10247C61.4429 0.811825 61.8086 0.666504 62.2449 0.666504C62.6813 0.666504 63.047 0.805219 63.3422 1.08265C63.6373 1.34687 63.7849 1.68375 63.7849 2.0933C63.7849 2.52926 63.6373 2.89917 63.3422 3.20303C63.0598 3.49367 62.6941 3.63899 62.2449 3.63899Z" fill="white"/>
<path d="M76.5486 5.38285V15.9649H74.2579V14.6174C73.8729 15.093 73.3917 15.4629 72.8142 15.7271C72.2367 15.9781 71.6143 16.1036 70.947 16.1036C69.5738 16.1036 68.4894 15.7139 67.6938 14.9344C66.911 14.1418 66.5196 12.9726 66.5196 11.4269V5.38285H68.9258V11.09C68.9258 12.0412 69.1311 12.7546 69.5418 13.2302C69.9652 13.6926 70.562 13.9238 71.332 13.9238C72.1918 13.9238 72.8719 13.653 73.3724 13.1113C73.8858 12.5565 74.1424 11.7638 74.1424 10.7333V5.38285H76.5486Z" fill="white"/>
<path d="M92.6734 5.26395C93.9695 5.26395 94.9962 5.65368 95.7533 6.43313C96.5105 7.19937 96.8891 8.35534 96.8891 9.90103V15.9649H94.4828V10.2181C94.4828 9.29332 94.284 8.59974 93.8861 8.13736C93.4883 7.66176 92.9172 7.42396 92.1729 7.42396C91.3644 7.42396 90.7163 7.70139 90.2287 8.25626C89.741 8.79791 89.4972 9.57736 89.4972 10.5946V15.9649H87.091V10.2181C87.091 9.29332 86.8921 8.59974 86.4942 8.13736C86.0964 7.66176 85.5253 7.42396 84.781 7.42396C83.9597 7.42396 83.3052 7.69479 82.8176 8.23644C82.3427 8.77809 82.1053 9.56415 82.1053 10.5946V15.9649H79.6991V5.38285H81.9898V6.73038C82.3748 6.25478 82.856 5.89148 83.4335 5.64047C84.011 5.38946 84.6527 5.26395 85.3585 5.26395C86.1285 5.26395 86.8087 5.41588 87.399 5.71973C88.0021 6.01038 88.477 6.44634 88.8234 7.02763C89.2469 6.47276 89.7924 6.0434 90.4597 5.73955C91.127 5.42248 91.8649 5.26395 92.6734 5.26395Z" fill="white"/>
</svg>
