<svg width="30" height="30" viewBox="0 0 30 30" fill="none" xmlns="http://www.w3.org/2000/svg">
<path d="M12.8056 15.3087L1.1504 9.29588C0.626194 9.02544 0 9.40334 0 9.99012V22.1802C0 22.7116 0.295785 23.1995 0.768635 23.448L12.4282 29.575C12.9527 29.8506 13.5839 29.4729 13.5839 28.8835V16.5815C13.5839 16.0462 13.2838 15.5554 12.8056 15.3087Z" fill="white"/>
<path d="M16.5278 15.3087L28.1829 9.29588C28.7071 9.02544 29.3333 9.40334 29.3333 9.99012V22.1802C29.3333 22.7116 29.0375 23.1995 28.5647 23.448L16.9051 29.575C16.3807 29.8506 15.7494 29.4729 15.7494 28.8835V16.5815C15.7494 16.0462 16.0495 15.5554 16.5278 15.3087Z" fill="white"/>
<path d="M1.50151 7.33368L13.8083 13.793C14.3454 14.0749 14.988 14.0749 15.525 13.793L27.8318 7.33368C28.3629 7.05495 28.339 6.29144 27.7915 6.04603L15.3954 0.489274C14.9321 0.28157 14.4012 0.28157 13.9379 0.489274L1.54182 6.04603C0.994358 6.29144 0.970457 7.05495 1.50151 7.33368Z" fill="white"/>
</svg>
