<svg width="212" height="49" viewBox="0 0 212 49" fill="none" xmlns="http://www.w3.org/2000/svg">
<g clip-path="url(#clip0_16155_10004)">
<path fill-rule="evenodd" clip-rule="evenodd" d="M27.7664 23.3342L3.40869 9.53432L13.2053 3.80103L27.7664 12.055" fill="#D69900"/>
<path fill-rule="evenodd" clip-rule="evenodd" d="M13.1965 41.4934L13.2022 3.79663L3.40551 9.52991L3.23486 47.183" fill="#F3BA2C"/>
<path fill-rule="evenodd" clip-rule="evenodd" d="M18.2329 25.6851L42.5702 39.4639L32.7738 45.197L18.2329 37.0255" fill="#D69900"/>
<path fill-rule="evenodd" clip-rule="evenodd" d="M32.7611 7.50444L32.7554 45.2012L42.5519 39.4678L42.7226 1.8147" fill="#F3BA2C"/>
<path fill-rule="evenodd" clip-rule="evenodd" d="M115.127 35.6534H117.98V29.1918H124.378V35.6534H127.231V20.6615H124.378V26.6328H117.98V20.6615H115.127V35.6534ZM137.949 35.888C142.228 35.888 145.563 32.476 145.563 28.1468C145.563 23.7964 142.208 20.427 137.908 20.427C133.606 20.427 130.293 23.7964 130.293 28.1255C130.293 32.4545 133.649 35.888 137.949 35.888ZM137.908 33.1797C135.117 33.1797 133.208 31.1325 133.208 28.1255C133.208 25.1612 135.117 23.114 137.908 23.114C140.697 23.114 142.626 25.1612 142.626 28.1255C142.626 31.1325 140.718 33.1797 137.908 33.1797ZM148.636 35.6534H151.489V29.3836H151.971L156.691 35.6534H160.151L155.223 29.341C157.635 29.0212 159.187 27.4005 159.187 25.0333C159.187 22.4955 157.258 20.6615 154.404 20.6615H148.636V35.6534ZM154.153 23.0287C155.558 23.0287 156.355 23.9244 156.355 25.0759C156.355 26.3555 155.558 27.1233 154.153 27.1233H151.489V23.0287H154.153ZM162.648 35.6534H165.501V20.6615H162.648V35.6534ZM168.431 35.6534H179.401V33.0944H172.207L179.569 22.6873V20.6615H168.871V23.2204H175.773L168.431 33.6275V35.6534ZM189.023 35.888C193.302 35.888 196.638 32.476 196.638 28.1468C196.638 23.7964 193.281 20.427 188.981 20.427C184.681 20.427 181.367 23.7964 181.367 28.1255C181.367 32.4545 184.723 35.888 189.023 35.888ZM188.981 33.1797C186.191 33.1797 184.282 31.1325 184.282 28.1255C184.282 25.1612 186.191 23.114 188.981 23.114C191.77 23.114 193.701 25.1612 193.701 28.1255C193.701 31.1325 191.792 33.1797 188.981 33.1797ZM199.71 35.6534H202.562V25.9929L209.904 35.6534H211.96V20.6615H209.086V30.386L201.702 20.6615H199.71V35.6534Z" fill="white"/>
<path fill-rule="evenodd" clip-rule="evenodd" d="M51.4443 35.6384H56.1726V19.6258L68.3414 35.6384H71.7487V10.7888H66.9856V26.9075L54.7472 10.7888H51.4443V35.6384ZM78.2157 35.6384H82.944V25.4582H94.0001V21.1811H82.944V15.0306H94.5911V10.7888H78.2157V35.6384ZM105.762 35.6384H110.525V15.0662H118.314V10.7888H97.9742V15.0662H105.762L105.762 35.6384Z" fill="white"/>
</g>
<defs>
<clipPath id="clip0_16155_10004">
<rect width="211.961" height="47.25" fill="white" transform="translate(0 0.875)"/>
</clipPath>
</defs>
</svg>
