<svg width="115" height="38" viewBox="0 0 115 38" fill="none" xmlns="http://www.w3.org/2000/svg">
<g clip-path="url(#clip0_16179_582)">
<path d="M106.682 24.3644C106.682 24.0468 106.607 23.753 106.457 23.483C106.315 23.205 106.02 22.9549 105.57 22.7325C105.129 22.5022 104.463 22.3037 103.572 22.1369C102.823 21.986 102.144 21.8073 101.536 21.6008C100.937 21.3944 100.425 21.1442 100 20.8504C99.5839 20.5566 99.2633 20.2111 99.0385 19.814C98.8137 19.417 98.7013 18.9524 98.7013 18.4203C98.7013 17.9121 98.8179 17.4316 99.051 16.979C99.2925 16.5263 99.6297 16.1253 100.063 15.7759C100.504 15.4264 101.033 15.1525 101.649 14.9539C102.265 14.7554 102.952 14.6561 103.709 14.6561C104.792 14.6561 105.716 14.8388 106.482 15.2041C107.248 15.5694 107.835 16.0578 108.243 16.6693C108.651 17.2728 108.855 17.9439 108.855 18.6824H106.544C106.544 18.325 106.432 17.9796 106.207 17.6461C105.991 17.3046 105.67 17.0227 105.246 16.8003C104.829 16.5779 104.317 16.4668 103.709 16.4668C103.068 16.4668 102.548 16.5621 102.148 16.7526C101.757 16.9353 101.47 17.1696 101.287 17.4555C101.112 17.7413 101.024 18.0431 101.024 18.3608C101.024 18.599 101.066 18.8134 101.149 19.004C101.241 19.1867 101.399 19.3574 101.624 19.5162C101.849 19.6671 102.165 19.8101 102.573 19.9451C102.981 20.0801 103.501 20.2151 104.134 20.3501C105.241 20.5883 106.153 20.8742 106.869 21.2078C107.585 21.5413 108.118 21.9503 108.468 22.4347C108.817 22.9191 108.992 23.5068 108.992 24.1977C108.992 24.7615 108.867 25.2777 108.618 25.7462C108.376 26.2148 108.022 26.6198 107.556 26.9613C107.098 27.2948 106.549 27.5569 105.907 27.7475C105.275 27.9301 104.563 28.0214 103.772 28.0214C102.581 28.0214 101.574 27.8189 100.75 27.4139C99.9253 27.0089 99.3008 26.4848 98.8762 25.8415C98.4516 25.1983 98.2393 24.5193 98.2393 23.8046H100.562C100.595 24.4081 100.779 24.8886 101.112 25.2459C101.445 25.5954 101.853 25.8455 102.336 25.9964C102.819 26.1393 103.297 26.2108 103.772 26.2108C104.405 26.2108 104.933 26.1314 105.358 25.9726C105.791 25.8137 106.12 25.5954 106.345 25.3174C106.569 25.0395 106.682 24.7218 106.682 24.3644Z" fill="#8492A5"/>
<path d="M92.969 24.8056V14.8948H95.2919V27.7836H93.0814L92.969 24.8056ZM93.4061 22.0896L94.3677 22.0658C94.3677 22.9235 94.272 23.7176 94.0805 24.4482C93.8973 25.1709 93.5976 25.7983 93.1813 26.3303C92.765 26.8624 92.2196 27.2793 91.5452 27.5811C90.8708 27.8749 90.0507 28.0218 89.0849 28.0218C88.4272 28.0218 87.8235 27.9305 87.274 27.7479C86.7328 27.5652 86.2666 27.2833 85.8753 26.9021C85.484 26.5209 85.1801 26.0246 84.9636 25.4131C84.7554 24.8016 84.6514 24.067 84.6514 23.2094V14.8948H86.9618V23.2332C86.9618 23.8129 87.0284 24.2934 87.1616 24.6746C87.3032 25.0478 87.4905 25.3456 87.7236 25.568C87.9651 25.7824 88.2315 25.9333 88.5229 26.0206C88.8227 26.108 89.1307 26.1517 89.4471 26.1517C90.4295 26.1517 91.208 25.973 91.7825 25.6156C92.357 25.2503 92.7691 24.7619 93.0189 24.1504C93.277 23.531 93.4061 22.8441 93.4061 22.0896Z" fill="#8492A5"/>
<path d="M80.9924 9.48651V27.7834H78.6694V9.48651H80.9924Z" fill="#8492A5"/>
<path d="M63.2832 21.4817V21.2078C63.2832 20.2786 63.4247 19.417 63.7078 18.6228C63.9909 17.8208 64.3989 17.1259 64.9317 16.5382C65.4646 15.9426 66.1099 15.482 66.8675 15.1564C67.6252 14.8229 68.4744 14.6561 69.4152 14.6561C70.3644 14.6561 71.2178 14.8229 71.9755 15.1564C72.7414 15.482 73.3909 15.9426 73.9237 16.5382C74.4649 17.1259 74.877 17.8208 75.1601 18.6228C75.4432 19.417 75.5847 20.2786 75.5847 21.2078V21.4817C75.5847 22.4109 75.4432 23.2725 75.1601 24.0666C74.877 24.8608 74.4649 25.5556 73.9237 26.1513C73.3909 26.7389 72.7456 27.1995 71.9879 27.533C71.2386 27.8586 70.3894 28.0214 69.4402 28.0214C68.4911 28.0214 67.6377 27.8586 66.88 27.533C66.1223 27.1995 65.4729 26.7389 64.9317 26.1513C64.3989 25.5556 63.9909 24.8608 63.7078 24.0666C63.4247 23.2725 63.2832 22.4109 63.2832 21.4817ZM65.5936 21.2078V21.4817C65.5936 22.125 65.6727 22.7325 65.8309 23.3043C65.9891 23.8681 66.2264 24.3684 66.5428 24.8052C66.8675 25.242 67.2713 25.5874 67.7542 25.8415C68.2371 26.0877 68.7991 26.2108 69.4402 26.2108C70.073 26.2108 70.6267 26.0877 71.1012 25.8415C71.5841 25.5874 71.9838 25.242 72.3002 24.8052C72.6166 24.3684 72.8538 23.8681 73.012 23.3043C73.1786 22.7325 73.2618 22.125 73.2618 21.4817V21.2078C73.2618 20.5724 73.1786 19.9729 73.012 19.409C72.8538 18.8373 72.6124 18.333 72.2877 17.8962C71.9713 17.4515 71.5717 17.1021 71.0887 16.8479C70.6142 16.5938 70.0563 16.4668 69.4152 16.4668C68.7825 16.4668 68.2246 16.5938 67.7417 16.8479C67.2672 17.1021 66.8675 17.4515 66.5428 17.8962C66.2264 18.333 65.9891 18.8373 65.8309 19.409C65.6727 19.9729 65.5936 20.5724 65.5936 21.2078Z" fill="#8492A5"/>
<path d="M58.7499 23.3998C58.7499 22.9948 58.6832 22.6374 58.55 22.3277C58.4251 22.01 58.2003 21.7242 57.8756 21.47C57.5592 21.2159 57.118 20.9737 56.5518 20.7434C55.994 20.5131 55.2863 20.2788 54.4287 20.0406C53.5295 19.7865 52.7177 19.5045 51.9934 19.1948C51.269 18.8772 50.6487 18.5158 50.1325 18.1108C49.6163 17.7058 49.2208 17.2413 48.9461 16.7171C48.6713 16.193 48.534 15.5934 48.534 14.9184C48.534 14.2434 48.6797 13.62 48.9711 13.0482C49.2625 12.4764 49.6788 11.9801 50.22 11.5592C50.7695 11.1304 51.4231 10.7968 52.1807 10.5586C52.9384 10.3204 53.7834 10.2012 54.7159 10.2012C56.0814 10.2012 57.2387 10.4514 58.1879 10.9517C59.1453 11.4441 59.8738 12.0913 60.3734 12.8934C60.873 13.6875 61.1227 14.5372 61.1227 15.4425H58.7249C58.7249 14.7913 58.5792 14.2156 58.2878 13.7153C57.9964 13.207 57.5551 12.81 56.9639 12.5241C56.3728 12.2303 55.6235 12.0833 54.7159 12.0833C53.8584 12.0833 53.1507 12.2064 52.5928 12.4526C52.035 12.6988 51.6187 13.0323 51.344 13.4532C51.0775 13.8741 50.9443 14.3546 50.9443 14.8946C50.9443 15.2599 51.0234 15.5934 51.1816 15.8952C51.3481 16.189 51.6021 16.463 51.9434 16.7171C52.2931 16.9712 52.7344 17.2055 53.2672 17.4199C53.8084 17.6343 54.4537 17.8408 55.203 18.0394C56.2354 18.3173 57.1263 18.627 57.8756 18.9685C58.625 19.31 59.2411 19.6951 59.724 20.124C60.2152 20.5449 60.5774 21.0253 60.8105 21.5653C61.052 22.0974 61.1727 22.7009 61.1727 23.376C61.1727 24.0827 61.0228 24.722 60.7231 25.2938C60.4234 25.8656 59.9946 26.354 59.4367 26.759C58.8789 27.164 58.2087 27.4777 57.426 27.7C56.6517 27.9144 55.7858 28.0217 54.8283 28.0217C53.9874 28.0217 53.159 27.9105 52.3431 27.6881C51.5355 27.4658 50.7986 27.1322 50.1325 26.6875C49.4748 26.2428 48.9461 25.6948 48.5464 25.0436C48.1551 24.3845 47.9595 23.6221 47.9595 22.7565H50.3573C50.3573 23.3521 50.4781 23.8643 50.7195 24.2932C50.961 24.7141 51.2898 25.0635 51.7061 25.3414C52.1308 25.6194 52.6095 25.8259 53.1424 25.9609C53.6835 26.0879 54.2455 26.1515 54.8283 26.1515C55.6693 26.1515 56.3811 26.0403 56.9639 25.8179C57.5468 25.5956 57.988 25.2779 58.2878 24.865C58.5958 24.452 58.7499 23.9636 58.7499 23.3998Z" fill="#8492A5"/>
<path d="M25.3118 36.3312C35.3568 36.3312 43.5 28.5642 43.5 18.9831C43.5 9.40193 35.3568 1.63489 25.3118 1.63489C15.2667 1.63489 7.12354 9.40193 7.12354 18.9831C7.12354 28.5642 15.2667 36.3312 25.3118 36.3312Z" fill="#20252C"/>
<path fill-rule="evenodd" clip-rule="evenodd" d="M18.7745 0.567566C16.0375 9.09495 11.9925 17.1932 7.40773 24.9465L7.12354 25.4886L7.56163 25.704C7.94624 25.8743 8.45256 25.9888 9.13801 26.1196C9.82346 26.2503 10.6666 26.3807 11.6141 26.5098C13.5091 26.768 15.8197 27.0204 18.0612 27.2425C22.5442 27.6867 26.7523 28.0107 26.7523 28.0107L27.4683 28.0657L27.4134 27.3823C27.4134 27.3823 26.3031 13.604 26.0957 11.3402L26.0846 11.2179L26.0224 11.1099C24.7084 9.10836 19.6033 0.8033 18.7745 0.567566ZM19.3438 2.99023C21.2842 6.24622 22.9606 8.09232 25.0276 11.6643C25.2338 13.9408 26.0458 25.6943 26.1334 26.7803C25.5203 26.7325 22.2832 26.4841 18.1877 26.0783C15.955 25.857 13.6553 25.6058 11.7879 25.3514C10.8542 25.2242 10.0281 25.0956 9.3789 24.9718C9.05859 24.9107 9.05155 24.733 8.82868 24.6754C12.1772 19.0323 17.4962 10.1822 19.3438 2.99023Z" fill="#20252C"/>
<path fill-rule="evenodd" clip-rule="evenodd" d="M43.1145 22.5479C40.4585 25.9654 35.5524 27.7919 29.7076 28.6019C23.6097 29.4469 16.5387 29.1959 10.2295 28.6818C10.5317 29.1124 10.8634 29.5298 11.2047 29.9328C17.2783 30.3921 23.97 30.5798 29.8841 29.7602C34.8167 29.0767 39.2737 27.6898 42.3315 25.1124C42.6651 24.2838 42.9395 23.3659 43.1145 22.5479Z" fill="#8492A5"/>
<path fill-rule="evenodd" clip-rule="evenodd" d="M28.4379 13.291L28.1455 14.5106C31.0012 16.3326 33.7227 17.9233 35.4901 19.6148C37.2574 21.3063 38.0856 22.9709 37.4139 25.3019L37.1009 26.3898L38.2138 26.0076C41.691 24.8143 43.3432 22.5019 44.3526 20.6097L44.6368 20.0676L44.0684 19.5255C42.3737 17.8232 39.7561 16.695 36.719 15.6679C33.6819 14.6409 30.3741 13.7363 28.4379 13.291ZM31.83 15.4461C33.2434 15.8166 34.7832 16.2553 36.3088 16.7713C39.077 17.7074 41.6978 18.911 43.1788 20.212C42.332 21.7015 41.0405 23.4194 38.8127 24.4871C39.0515 22.2584 38.022 20.3802 36.3593 18.7889C35.132 17.6143 33.5293 16.5323 31.83 15.4461Z" fill="#20252C"/>
<path d="M29.8829 29.7594C23.7024 30.5912 17.4069 30.385 11.2046 29.9325C15.1959 34.7875 22.1326 37.234 28.5402 36.0548C34.7243 35.041 40.1447 30.7214 42.3282 25.1172C38.6559 27.6018 34.3173 29.1098 29.8829 29.7594Z" fill="#20252C"/>
<path fill-rule="evenodd" clip-rule="evenodd" d="M26.4487 12.2063C29.1879 17.5884 29.1904 22.9131 27.5855 26.8438C29.8453 26.8569 33.533 27.0986 37.5322 25.2174C34.2451 18.0587 26.4487 12.2063 26.4487 12.2063Z" fill="#8492A5"/>
<path fill-rule="evenodd" clip-rule="evenodd" d="M19.3437 2.99005C17.496 10.182 12.1771 19.0322 8.82861 24.6753L11.7884 25.3517C13.6558 25.6062 15.9555 25.8574 18.1882 26.0786C22.2834 26.4845 25.5507 26.796 26.1643 26.8438C26.0766 25.7571 25.2338 13.9411 25.0275 11.6641C22.9605 8.09214 21.2841 6.24605 19.3437 2.99005Z" fill="#8492A5"/>
<path fill-rule="evenodd" clip-rule="evenodd" d="M31.8486 15.4592C33.5485 16.5456 35.1681 17.5371 36.3957 18.7119C38.0582 20.3031 38.9079 22.4469 38.6692 24.6754C40.8968 23.6078 42.3695 21.8277 43.2163 20.3383C41.7352 19.0375 39.1637 17.7505 36.3957 16.8145C34.8694 16.2984 33.2625 15.8298 31.8486 15.4592Z" fill="#8492A5"/>
</g>
<defs>
<clipPath id="clip0_16179_582">
<rect width="113.232" height="36.8649" fill="white" transform="translate(0.809082 0.567566)"/>
</clipPath>
</defs>
</svg>
