<svg width="119" height="44" viewBox="0 0 119 44" fill="none" xmlns="http://www.w3.org/2000/svg">
<g clip-path="url(#clip0_16179_662)">
<path d="M51.2955 20.301C51.13 20.301 50.9584 20.2338 50.7745 20.0994C50.5967 19.9649 50.4312 19.7999 50.2841 19.6044C50.137 19.4088 50.0144 19.201 49.9225 18.981C49.8244 18.7672 49.7815 18.5655 49.7815 18.3883V16.6099H53.8085V17.0133C53.8085 17.0927 53.8392 17.166 53.8943 17.2455C53.9495 17.3249 54.0108 17.3616 54.0782 17.3616H58.1665L50.5845 14.911C50.419 14.8072 50.2535 14.6788 50.0941 14.526C49.9348 14.3733 49.8306 14.2022 49.7754 14.0066V11.6905C49.7754 11.5255 49.8244 11.3299 49.9164 11.1099C50.0144 10.8838 50.1309 10.676 50.278 10.4805C50.4251 10.2849 50.5906 10.1199 50.7684 9.98549C50.9461 9.85104 51.1177 9.78382 51.2894 9.78382H60.9248C61.0903 9.78382 61.2619 9.85104 61.4458 9.98549C61.6235 10.1199 61.789 10.2849 61.9361 10.4805C62.0832 10.676 62.2058 10.8899 62.2977 11.1099C62.3958 11.336 62.4387 11.5255 62.4387 11.6905V13.4688H58.4117V13.0655C58.4117 12.986 58.3811 12.9127 58.3259 12.8333C58.2707 12.7538 58.2094 12.7172 58.142 12.7172H54.0537L61.6358 15.1677C61.838 15.296 62.0158 15.4305 62.1568 15.571C62.2977 15.7116 62.3958 15.8766 62.4449 16.066V18.3822C62.4449 18.5594 62.3958 18.761 62.3039 18.9749C62.2058 19.1888 62.0893 19.3966 61.9422 19.5983C61.7951 19.7938 61.6296 19.9588 61.4519 20.0933C61.2741 20.2277 61.1025 20.2949 60.9309 20.2949H51.2955V20.301ZM75.1082 17.606H68.4333V14.6605H72.3254C72.3929 14.6605 72.448 14.6299 72.4971 14.5627C72.5461 14.5016 72.5829 14.4283 72.5951 14.3549V13.0899C72.5951 13.0105 72.5645 12.9372 72.5093 12.8577C72.4542 12.7783 72.3929 12.7416 72.3254 12.7416H67.5077V20.301C67.4955 20.3622 67.4035 20.4722 67.238 20.6249C67.0725 20.7777 66.8641 20.9488 66.6128 21.1322C66.3615 21.3155 66.0857 21.511 65.7854 21.7127C65.485 21.9144 65.1847 22.1038 64.8905 22.2688C64.5963 22.4338 64.3204 22.5744 64.063 22.6783C63.8056 22.7883 63.6094 22.8433 63.4685 22.8433V9.77771H75.0959C75.2614 9.77771 75.433 9.84493 75.6169 9.97938C75.7947 10.1138 75.9602 10.2788 76.1073 10.4744C76.2544 10.6699 76.377 10.8838 76.475 11.1038C76.5731 11.3299 76.616 11.5194 76.616 11.6844V15.681C76.616 15.8583 76.567 16.0599 76.475 16.2738C76.377 16.4877 76.2605 16.6955 76.1073 16.8972C75.9602 17.0927 75.7947 17.2577 75.6169 17.3922C75.4392 17.5266 75.2675 17.5938 75.0959 17.5938L75.1082 17.606ZM86.3127 20.301L85.6998 19.036H80.8637L80.2507 20.301H76.0092L80.1159 11.8616C80.0914 11.8249 80.0056 11.7333 79.8646 11.5866C79.7236 11.4399 79.5643 11.2627 79.3865 11.0488C79.2088 10.841 79.0371 10.621 78.8778 10.401C78.7184 10.1749 78.6142 9.97327 78.559 9.77771H85.4301L90.5543 20.301H86.3127ZM83.2787 13.9272L82.2428 16.0905H84.2962L83.2787 13.9272ZM103.101 20.301C103.267 20.301 103.438 20.2338 103.622 20.0994C103.8 19.9649 103.965 19.7999 104.112 19.6044C104.26 19.4088 104.382 19.201 104.48 18.981C104.578 18.7672 104.627 18.5655 104.627 18.3883V16.2616H100.6V16.9888C100.6 17.0683 100.57 17.1416 100.515 17.221C100.459 17.3005 100.398 17.3372 100.331 17.3372H95.7826C95.703 17.3372 95.6417 17.3005 95.5926 17.221C95.5436 17.1416 95.5129 17.0683 95.5129 16.9888V13.0838C95.5129 13.0227 95.5436 12.9494 95.5988 12.8638C95.6539 12.7783 95.7152 12.7416 95.7826 12.7416H100.331C100.392 12.7416 100.453 12.7783 100.515 12.8577C100.57 12.9372 100.6 13.0105 100.6 13.0899V13.8172H104.627V11.6905C104.627 11.5255 104.578 11.3299 104.48 11.1099C104.382 10.8838 104.266 10.676 104.112 10.4805C103.959 10.2849 103.8 10.1199 103.622 9.98549C103.444 9.85104 103.273 9.78382 103.101 9.78382H92.9876C92.8221 9.78382 92.6505 9.85104 92.4666 9.98549C92.2889 10.1199 92.1234 10.2849 91.9763 10.4805C91.8292 10.676 91.7066 10.8899 91.6085 11.1099C91.5105 11.336 91.4614 11.5255 91.4614 11.6905V18.3883C91.4614 18.5655 91.5105 18.7672 91.6085 18.981C91.7066 19.1949 91.8292 19.4027 91.9763 19.6044C92.1234 19.7999 92.2889 19.9649 92.4666 20.0994C92.6444 20.2338 92.816 20.301 92.9876 20.301H103.101ZM106.767 20.301V11.8249C106.73 11.776 106.638 11.6722 106.491 11.5194C106.344 11.3666 106.19 11.1894 106.019 10.9938C105.853 10.7983 105.694 10.5905 105.541 10.3705C105.387 10.1566 105.283 9.95493 105.234 9.77771H118.995V12.7416H110.836V13.5666H116.996V16.5122H110.836V17.3372H118.995V20.301H106.773H106.767Z" fill="#8492A5"/>
<path d="M61.3969 34.8883C61.5624 34.8883 61.734 34.8211 61.9179 34.6867C62.0957 34.5522 62.2612 34.3872 62.4083 34.1855C62.5554 33.99 62.678 33.7822 62.776 33.5622C62.8741 33.3422 62.9232 33.1467 62.9232 32.9694V30.8367H58.8839V31.5639C58.8839 31.6433 58.8532 31.7167 58.7981 31.7961C58.7429 31.8755 58.6816 31.9122 58.6142 31.9122H54.0539C53.9742 31.9122 53.9129 31.8755 53.8639 31.7961C53.8149 31.7167 53.7842 31.6433 53.7842 31.5639V27.6467C53.7842 27.5855 53.8149 27.5061 53.87 27.4267C53.9252 27.3411 53.9865 27.3044 54.0539 27.3044H58.6142C58.6755 27.3044 58.7368 27.3411 58.7981 27.4205C58.8594 27.5 58.8839 27.5733 58.8839 27.6528V28.38H62.9232V26.2472C62.9232 26.0822 62.8741 25.8867 62.776 25.6605C62.678 25.4344 62.5554 25.2267 62.4083 25.025C62.2612 24.8294 62.0957 24.6583 61.9179 24.5239C61.7402 24.3894 61.5686 24.3222 61.3969 24.3222H51.2528C51.0873 24.3222 50.9157 24.3894 50.7318 24.5239C50.554 24.6583 50.3885 24.8233 50.2414 25.025C50.0943 25.2205 49.9717 25.4344 49.8737 25.6605C49.7756 25.8867 49.7266 26.0822 49.7266 26.2472V32.9633C49.7266 33.1405 49.7756 33.3422 49.8737 33.5561C49.9717 33.7761 50.0943 33.9839 50.2414 34.1794C50.3885 34.375 50.554 34.5461 50.7318 34.6805C50.9095 34.815 51.0873 34.8822 51.2528 34.8822H61.3969V34.8883ZM73.8335 34.8883L73.2205 33.6233H68.3722L67.7531 34.8883H63.4993L67.6183 26.4244C67.5938 26.3878 67.5079 26.2961 67.367 26.1433C67.226 25.9967 67.0666 25.8194 66.8889 25.6055C66.7111 25.3917 66.5395 25.1778 66.3801 24.9517C66.2208 24.7255 66.1104 24.5178 66.0614 24.3283H72.9508L78.0934 34.8822H73.8396L73.8335 34.8883ZM70.7933 28.4961L69.7513 30.6655H71.8108L70.7872 28.4961H70.7933ZM80.7045 37.4367V27.3044H76.1197V24.3283H89.3225V27.3044H84.7438V34.8822C84.7315 34.9433 84.6396 35.0533 84.4741 35.2061C84.3086 35.3589 84.1002 35.53 83.8489 35.7133C83.5976 35.8967 83.3218 36.0922 83.0214 36.3C82.7211 36.5017 82.4208 36.6911 82.1266 36.8561C81.8323 37.0211 81.5565 37.1617 81.2991 37.2717C81.0416 37.3817 80.8455 37.4367 80.7045 37.4367ZM102.035 34.8822C102.2 34.8822 102.372 34.815 102.556 34.6805C102.734 34.5461 102.899 34.3811 103.046 34.1794C103.193 33.9839 103.316 33.7761 103.414 33.5561C103.512 33.3361 103.561 33.1405 103.561 32.9633V30.8305H99.5156V31.5578C99.5156 31.6372 99.485 31.7105 99.4298 31.79C99.3747 31.8694 99.3134 31.9061 99.246 31.9061H94.6857C94.606 31.9061 94.5447 31.8694 94.4957 31.79C94.4466 31.7105 94.416 31.6372 94.416 31.5578V27.6405C94.416 27.5794 94.4466 27.5 94.5018 27.4205C94.5631 27.335 94.6183 27.2983 94.6857 27.2983H99.246C99.3072 27.2983 99.3685 27.335 99.4298 27.4144C99.485 27.4939 99.5156 27.5672 99.5156 27.6467V28.3739H103.561V26.2411C103.561 26.0761 103.512 25.8805 103.414 25.6544C103.316 25.4283 103.193 25.2205 103.046 25.0189C102.899 24.8233 102.734 24.6522 102.556 24.5178C102.378 24.3833 102.206 24.3161 102.035 24.3161H91.8907C91.7252 24.3161 91.5536 24.3833 91.3697 24.5178C91.1919 24.6522 91.0264 24.8172 90.8793 25.0189C90.7322 25.2144 90.6096 25.4283 90.5116 25.6544C90.4135 25.8805 90.3645 26.0761 90.3645 26.2411V32.9572C90.3645 33.1344 90.4135 33.3361 90.5116 33.55C90.6096 33.7639 90.7322 33.9778 90.8793 34.1733C91.0264 34.3689 91.1919 34.54 91.3697 34.6744C91.5474 34.8089 91.7252 34.8761 91.8907 34.8761H102.035V34.8822ZM109.85 34.8822H105.804V26.3817C105.768 26.3328 105.676 26.2289 105.522 26.0761C105.375 25.9233 105.216 25.7461 105.05 25.5505C104.885 25.355 104.726 25.1472 104.572 24.9272C104.419 24.7072 104.315 24.5117 104.266 24.3344H109.85V28.1172H114.949V24.3344H118.995V34.8883H114.949V31.1055H109.85V34.8883V34.8822Z" fill="#8492A5"/>
<path d="M8.10103 36.0191C5.98639 35.9947 4.93213 35.9886 4.93213 35.9886C8.15619 39.7164 11.8338 42.118 15.965 43.1936C20.844 44.4952 25.5637 44.2202 30.1239 42.3686C33.3235 41.1097 36.2043 38.9708 38.7664 35.958C36.7743 35.9152 35.7814 35.8969 35.7814 35.8969C34.2123 37.4675 32.4041 38.818 30.4059 39.7591C25.5208 42.0569 19.7162 42.3869 14.7759 40.413C12.3181 39.4352 10.0011 38.0297 8.10716 36.0191H8.10103Z" fill="#8492A5"/>
<path d="M16.9708 3.56258C18.0496 1.74758 18.5829 0.84314 18.5829 0.84314C13.7345 1.76592 9.80556 3.73981 6.80828 6.76481C3.24097 10.3215 1.1202 14.532 0.445968 19.3965C-0.0566423 22.7881 0.354027 26.3448 1.69024 30.0665C2.71997 28.3676 3.23484 27.5243 3.23484 27.5243C2.65255 25.3854 2.38286 23.1487 2.56674 20.9487C3.01419 15.5831 5.62531 10.407 9.81169 7.12536C11.8896 5.49369 14.2678 4.19203 16.9647 3.56258H16.9708Z" fill="#8492A5"/>
<path d="M27.0417 3.56258C25.9629 1.74758 25.4297 0.84314 25.4297 0.84314C30.278 1.76592 34.207 3.73981 37.2043 6.76481C40.7716 10.3276 42.8923 14.5381 43.5666 19.4026C44.0692 22.7943 43.6585 26.3509 42.3223 30.0726C41.2926 28.3737 40.7777 27.5304 40.7777 27.5304C41.36 25.3915 41.6297 23.1548 41.4458 20.9548C40.9984 15.5893 38.3872 10.4131 34.2009 7.13147C32.123 5.49981 29.7448 4.19814 27.0479 3.5687L27.0417 3.56258Z" fill="#8492A5"/>
<path d="M24.0684 3.39167C22.6525 1.31389 21.8128 0 21.8128 0C9.34563 21.5967 3.11816 32.395 3.11816 32.395C5.22668 33.5867 6.2748 34.1794 6.2748 34.1794C18.0432 13.475 24.0684 3.39167 24.0684 3.39167Z" fill="#8492A5"/>
<path d="M29.5858 13.6094C26.3679 8.12774 24.762 5.38385 24.762 5.38385C13.4287 24.7683 7.76514 34.4605 7.76514 34.4605C11.645 32.3522 13.5819 31.3011 13.5819 31.3011C21.0721 18.81 24.8232 12.5644 24.8232 12.5644C25.283 13.3283 25.5159 13.7133 25.5159 13.7133C19.5397 24.1633 16.5486 29.3883 16.5486 29.3883C20.3856 27.1638 22.3041 26.0516 22.3041 26.0516C27.1524 17.7527 29.5797 13.6094 29.5797 13.6094H29.5858Z" fill="#8492A5"/>
<path d="M23.4502 27.1274C25.4177 28.3435 26.4352 28.9302 26.4352 28.9302C30.3335 21.8535 32.2949 18.2724 32.2949 18.2724C31.0997 16.2741 30.4684 15.3207 30.4684 15.3207C25.7916 23.1919 23.4502 27.1274 23.4502 27.1274Z" fill="#8492A5"/>
<path d="M35.5552 30.4208C31.3934 28.068 29.3155 26.8947 29.3155 26.8947C29.3155 26.8947 28.8068 27.7991 27.7954 29.6141C34.1455 33.2197 37.3205 35.0286 37.3205 35.0286C39.6926 33.5986 40.8755 32.8836 40.8755 32.8836C37.5718 27.408 35.923 24.6763 35.923 24.6763C33.3854 24.7619 32.1166 24.8047 32.1166 24.8047C34.4152 28.5508 35.5614 30.4208 35.5614 30.4208H35.5552Z" fill="#8492A5"/>
</g>
<defs>
<clipPath id="clip0_16179_662">
<rect width="118.763" height="44" fill="white" transform="translate(0.237793)"/>
</clipPath>
</defs>
</svg>
