<svg width="16" height="16" viewBox="0 0 16 16" fill="none" xmlns="http://www.w3.org/2000/svg">
<path d="M13.7254 2.04684L0.311556 7.1234C-0.122921 7.28784 -0.0965995 7.89335 0.350642 8.02159L3.75924 8.99912L5.03134 12.9192C5.16422 13.3287 5.69852 13.4529 6.00782 13.1461L7.77016 11.3986L11.228 13.8636C11.6512 14.1652 12.2538 13.9411 12.3613 13.4421L14.6514 2.80846C14.7636 2.28759 14.2359 1.85363 13.7254 2.04684ZM12.0437 4.40672L5.81301 9.75766C5.7509 9.81101 5.71138 9.88483 5.70213 9.96485L5.46225 12.0358C5.45441 12.1034 5.35709 12.1123 5.33632 12.0474L4.34936 8.95885C4.30416 8.81745 4.36309 8.66424 4.49263 8.58623L11.8504 4.15443C12.0196 4.05243 12.1928 4.27865 12.0437 4.40672Z" fill="white"/>
</svg>
