<svg width="1440" height="411" viewBox="0 0 1440 411" fill="none" xmlns="http://www.w3.org/2000/svg">
<path d="M188.695 663.783L359.258 575.961M359.258 575.961L536.498 484.631M359.258 575.961L169.966 474.613V294.135M359.258 575.961L544.605 673.251M536.498 484.631L707.822 396.349M536.498 484.631L344.765 383.316V207.207M536.498 484.631L583.53 510.126M707.822 396.349L908.699 289.488V117.868M707.822 396.349L527.888 286.735V116.138M707.822 396.349L751.947 420.748M375.979 760.592L544.605 673.251M544.605 673.251L716.763 582.349M544.605 673.251L587.112 695.564M716.763 582.349L884.259 493.909M716.763 582.349L758.078 604.745M716.763 582.349L671.587 557.86M884.259 493.909L1089.74 382.695V206.615M884.259 493.909L924.666 516.252M884.259 493.909L838.572 468.646M552.859 852.022L719.19 764.893M719.19 764.893L889.286 675.87M719.19 764.893L762.795 788.89L806.4 812.888M719.19 764.893L677.291 742.9M889.286 675.87L1055.76 588.741M889.286 675.87L933.365 699.361L977.444 722.852M889.286 675.87L845.606 652.192M1055.76 588.741L1266.93 474.01V293.419M1055.76 588.741L1098.97 612.562M1055.76 588.741L1010.15 563.518M881.647 854.3L844.023 833.594L806.4 812.888M1055.76 764.592L1016.6 743.722L977.444 722.852M1220.64 679.647L1181.29 657.954L1141.95 636.26M527.888 116.138V-81.9948M527.888 116.138L344.765 207.207M527.888 116.138L715.172 23.0001M527.888 -81.9948V-252.826M527.888 -81.9948L715.172 -177.941M527.888 -81.9948L344.765 11.8194M527.888 -252.826V-430.067M527.888 -252.826L344.765 -157.639M527.888 -252.826L715.172 -353.14M344.765 207.207V11.8194M344.765 207.207L169.966 294.135M344.765 11.8194V-157.639M344.765 11.8194L169.966 101.369M344.765 -157.639V-335.824M344.765 -157.639L169.966 -66.7786M169.966 294.135V101.369M169.966 294.135L-2.75142 380.029M169.966 101.369V-66.7786M169.966 101.369L-2.75142 189.853M169.966 -66.7786V-246.729M169.966 -66.7786L-2.75142 23.0001M908.699 117.868V-80.213M908.699 117.868L715.172 23.0001M908.699 117.868L1089.74 206.615M908.699 -80.213V-253.982M908.699 -80.213L1089.74 11.2102M908.699 -80.213L715.172 -177.941M908.699 -253.982V-427.324M908.699 -253.982L715.172 -353.14M908.699 -253.982L1089.74 -161.221M1089.74 206.615V11.2102M1089.74 206.615L1266.93 293.419M1089.74 11.2102V-161.221M1089.74 11.2102L1266.93 100.721M1089.74 -161.221V-335.824M1089.74 -161.221L1266.93 -70.357M1266.93 293.419V100.721M1266.93 293.419L1443.5 380.029M1266.93 100.721V-70.357M1266.93 100.721L1443.5 189.853M1266.93 -70.357V-247.377M1266.93 -70.357L1443.5 20.0365M715.172 23.0001V-27.2351M715.172 23.0001V64.7133M715.172 -177.941V-221M715.172 -177.941V-127.706M715.172 -353.14V-391.169M715.172 -353.14V-307.118M715.172 189.853L763.234 214.597M715.172 189.853L671.744 212.535M715.172 189.853V149.925M715.172 -526L671.744 -503.755M715.172 -526L763.234 -501.733M715.172 -526V-482.044M-2.75142 564.824L48.5261 591.329M-2.75142 564.824L43.7468 540.538M-2.75142 564.824V516.735M1443.5 564.824L1401.58 543.241M1443.5 564.824L1379.12 597.992M1443.5 564.824V516.735M643.271 898.757L806.4 812.888M643.271 898.757L599.853 876.314M643.271 898.757L681.231 918.378M1359.66 521.659L1141.95 636.26M1359.66 521.659L1314.74 498.536M1359.66 521.659L1401.58 543.241M1359.66 521.659V-200.589M806.4 812.888L977.444 722.852M977.444 722.852L1141.95 636.26M1141.95 636.26L1098.97 612.562M599.853 876.314L513.018 831.428M599.853 876.314L1098.97 612.562M1314.74 498.536L1220.64 450.085M1314.74 498.536L1098.97 612.562M1314.74 498.536V-223.267M681.231 918.378L719.19 938L757.275 918.378M681.231 918.378L1401.58 543.241M1401.58 543.241V-179.423M468.852 808.599L513.018 831.428M468.852 808.599L420.943 783.834M468.852 808.599L633.781 720.061M1177.79 428.025L1220.64 450.085M1177.79 428.025L1133.59 405.27M1177.79 428.025L968.396 540.431M1177.79 428.025V-292.419M513.018 831.428L677.291 742.9M1220.64 450.085L1010.15 563.518M1220.64 450.085V-270.784M420.943 783.834L333.36 738.562M420.943 783.834L587.112 695.564M1133.59 405.27L1043.76 359.022M1133.59 405.27L924.666 516.252M1133.59 405.27V-314.735M291.439 716.893L333.36 738.562M291.439 716.893L242.033 691.354M291.439 716.893L628.316 534.404M996.75 334.82L1043.76 359.022M996.75 334.82L954.679 313.16M996.75 334.82L794.594 444.329M996.75 334.82V-383.827M333.36 738.562L671.587 557.86M1043.76 359.022L838.572 468.646M1043.76 359.022V-360.091M242.033 691.354L583.53 510.126M242.033 691.354L146 641.714M954.679 313.16L751.947 420.748M954.679 313.16L857.364 263.059M954.679 313.16V-405.07M677.291 742.9L633.781 720.061M677.291 742.9L845.606 652.192M633.781 720.061L587.112 695.564M633.781 720.061L803.115 629.158M587.112 695.564L758.078 604.745M845.606 652.192L803.115 629.158M845.606 652.192L1010.15 563.518M758.078 604.745L803.115 629.158M758.078 604.745L924.666 516.252M803.115 629.158L968.396 540.431M671.587 557.86L628.316 534.404M671.587 557.86L838.572 468.646M628.316 534.404L583.53 510.126M628.316 534.404L794.594 444.329M583.53 510.126L751.947 420.748M1010.15 563.518L968.396 540.431M968.396 540.431L924.666 516.252M838.572 468.646L794.594 444.329M794.594 444.329L751.947 420.748M99.8037 617.835L811.297 239.342M99.8037 617.835L146 641.714M99.8037 617.835L48.5261 591.329M811.297 239.342L857.364 263.059M811.297 239.342L763.234 214.597M811.297 239.342V-477.465M146 641.714L857.364 263.059M857.364 263.059V-454.205M48.5261 591.329L763.234 214.597M763.234 214.597V-501.733M90.2451 516.252L795.359 898.757M90.2451 516.252L43.7468 540.538M90.2451 516.252L133.023 493.909M90.2451 516.252V-205.893M795.359 898.757L757.275 918.378M795.359 898.757L838.572 876.493M259.165 428.025L962.025 812.888M259.165 428.025L216.582 450.266M259.165 428.025L302.732 405.27M259.165 428.025V-292.419M962.025 812.888L921.836 833.594M962.025 812.888L1008.6 788.89M437.616 334.82L1133.59 724.495M437.616 334.82L391.278 359.022M437.616 334.82L486.07 309.513M437.616 334.82V-383.827M1133.59 724.495L1096.27 743.722M1133.59 724.495L1177.79 701.723M628.316 235.217L1314.74 631.16M628.316 235.217L575.011 263.059M628.316 235.217L671.744 212.535M628.316 235.217V-481.51M1314.74 631.16L1262.74 657.954M1314.74 631.16L1379.12 597.992M43.7468 540.538L757.275 918.378M43.7468 540.538V-182.075M133.023 493.909L838.572 876.493M133.023 493.909L216.582 450.266M133.023 493.909V-227.805M838.572 876.493L921.836 833.594M216.582 450.266L921.836 833.594M216.582 450.266V-270.606M302.732 405.27L1008.6 788.89M302.732 405.27L391.278 359.022M302.732 405.27V-314.735M1008.6 788.89L1096.27 743.722M391.278 359.022L1096.27 743.722M391.278 359.022V-360.091M486.07 309.513L1177.79 701.723M486.07 309.513L575.011 263.059M486.07 309.513V-408.647M1177.79 701.723L1262.74 657.954M575.011 263.059L1262.74 657.954M575.011 263.059V-454.205M671.744 212.535L1379.12 597.992M671.744 212.535V-503.755M43.7468 -182.075L-2.75142 -158.257V-117.864M43.7468 -182.075L90.2451 -205.893M90.2451 -205.893L133.023 -227.805M133.023 -227.805L216.582 -270.606M216.582 -270.606L259.165 -292.419M259.165 -292.419L302.732 -314.735M302.732 -314.735L391.278 -360.091M391.278 -360.091L437.616 -383.827M437.616 -383.827L486.07 -408.647M486.07 -408.647L575.011 -454.205M575.011 -454.205L628.316 -481.51M628.316 -481.51L671.744 -503.755M763.234 -501.733L811.297 -477.465M811.297 -477.465L857.364 -454.205M857.364 -454.205L954.679 -405.07M954.679 -405.07L996.75 -383.827M996.75 -383.827L1043.76 -360.091M1043.76 -360.091L1133.59 -314.735M1133.59 -314.735L1177.79 -292.419M1177.79 -292.419L1220.64 -270.784M1220.64 -270.784L1314.74 -223.267M1314.74 -223.267L1359.66 -200.589M1359.66 -200.589L1401.58 -179.423M1401.58 -179.423L1443.5 -158.257V-117.864M-2.75142 468.646L715.172 106.427M-2.75142 468.646V428.025M-2.75142 468.646V516.735M715.172 106.427L1443.5 468.646M715.172 106.427V64.7133M715.172 106.427V149.925M1443.5 468.646V420.748M1443.5 468.646V516.735M-3.5 277.988L715.172 -77.4705M715.172 -77.4705L1443.5 277.988M715.172 -77.4705V-127.706M715.172 -77.4705V-27.2351M1443.5 277.988V231.764M1443.5 277.988V328M-2.75142 104.333L715.172 -261.095M-2.75142 104.333V62.0248M-2.75142 104.333V149.925M715.172 -261.095L1443.5 106.427M715.172 -261.095V-307.118M715.172 -261.095V-221M1443.5 106.427V62.0248M1443.5 106.427V149.925M-2.75142 -77.4705L715.172 -438.088M-2.75142 -77.4705V-117.864M-2.75142 -77.4705V-26.7011M715.172 -438.088L1443.5 -77.4705M715.172 -438.088V-482.044M715.172 -438.088V-391.169M1443.5 -77.4705V-117.864M1443.5 -77.4705V-29.6646M-2.75142 -117.864L715.172 -482.044M715.172 -482.044L1443.5 -117.864M1443.5 -29.6646L715.172 -391.169M1443.5 -29.6646V62.0248M715.172 -391.169L-2.75142 -26.7011M-2.75142 -26.7011V62.0248M-2.75142 62.0248L715.172 -307.118M715.172 -307.118L1443.5 62.0248M1443.5 149.925L715.172 -221M1443.5 149.925V231.764M715.172 -221L-2.75142 149.925M-2.75142 149.925V235.217M-2.75142 235.217L715.172 -127.706M-2.75142 235.217V328M715.172 -127.706L1443.5 231.764M1443.5 328L715.172 -27.2351M1443.5 328V420.748M715.172 -27.2351L-2.75142 328M-2.75142 328V428.025M-2.75142 428.025L715.172 64.7133M715.172 64.7133L1443.5 420.748M1443.5 516.735L715.172 149.925M715.172 149.925L-2.75142 516.735" stroke="url(#paint0_radial_15665_38335)"/>
<defs>
<radialGradient id="paint0_radial_15665_38335" cx="0" cy="0" r="1" gradientUnits="userSpaceOnUse" gradientTransform="translate(764.688 165.008) rotate(-90) scale(772.992 768.188)">
<stop offset="0.505615" stop-color="#552EE0" stop-opacity="0"/>
<stop offset="1" stop-color="#552EE0"/>
</radialGradient>
</defs>
</svg>
