<svg width="132" height="33" viewBox="0 0 132 33" fill="none" xmlns="http://www.w3.org/2000/svg">
<g clip-path="url(#clip0_16179_1395)">
<path fill-rule="evenodd" clip-rule="evenodd" d="M2.67897 4.4131L1.49602 4.3502L1.49066 5.54974L1.49006 5.79979C1.48971 5.99457 1.48924 6.33083 1.48877 6.89736C1.48782 8.03035 1.48688 10.085 1.48688 13.772V14.2456L2.88852 15.6649C2.33354 16.0185 1.77593 16.368 1.21577 16.7134L0.674308 17.0474L0.669922 24.9547L7.13505 31.5057L7.55947 31.5338C15.4924 32.0586 23.6509 31.4764 31.295 28.8059L32.0559 28.5401V19.0382L30.4022 17.3636C30.6839 17.0819 30.965 16.7978 31.2441 16.512L31.5703 16.1779V15.7081C31.5703 15.3838 31.5713 13.6854 31.5722 12.0675L31.5744 8.43931L24.9153 1.69617L24.2525 1.92101C17.3704 4.25566 9.98893 4.80175 2.67897 4.4131ZM24.6112 3.00517L30.445 8.91261C30.445 8.91261 30.4412 15.0586 30.4412 15.7081C30.1639 15.9921 29.8843 16.2746 29.6037 16.5551C29.335 16.8236 29.0655 17.0902 28.7962 17.3543L30.9268 19.5118V27.725C23.4665 30.3313 15.4681 30.9111 7.63308 30.3929L1.7993 24.4816L1.80307 17.69C2.44102 17.2966 3.07575 16.8979 3.70716 16.4939C4.03301 16.2854 4.35797 16.0754 4.68202 15.8641L2.616 13.772C2.616 9.85851 2.61706 7.7845 2.61806 6.69976C2.61894 5.74063 2.61977 5.55488 2.61977 5.55488C2.99576 5.57488 3.37211 5.59244 3.74872 5.60744C10.7825 5.88776 17.9106 5.27824 24.6112 3.00517Z" fill="#8492A5"/>
<path fill-rule="evenodd" clip-rule="evenodd" d="M2.61978 5.55466C10.018 5.94802 17.5518 5.39972 24.6112 3.00494L30.445 8.91239C30.445 8.91239 30.4412 15.0583 30.4412 15.7079C29.8983 16.2639 29.3466 16.8142 28.7962 17.354L30.9267 19.5115V27.7248C23.4666 30.331 15.468 30.9109 7.63307 30.3926L1.79932 24.4814L1.80309 17.6898C2.77026 17.0933 3.73003 16.4848 4.68205 15.8639L2.61602 13.7717C2.61602 6.3981 2.61978 5.55466 2.61978 5.55466Z" fill="#0D0D0D"/>
<path d="M28.1833 11.901V15.1939C24.5438 18.7079 20.9042 21.7721 17.2685 24.5048C21.0699 24.2494 24.8674 23.6358 28.6725 22.5229C28.6725 23.7387 28.6725 24.9507 28.6725 26.1665C23.4259 27.7062 18.1831 28.2894 12.9402 28.2894C11.924 28.2894 10.9078 28.2665 9.8916 28.2246V24.9316C13.5311 22.5877 17.1706 19.9999 20.8064 17.0385C18.1906 17.3777 15.5748 17.5226 12.959 17.5226C12.2062 17.5226 11.4573 17.5111 10.7045 17.4883C10.7045 16.2725 10.7045 15.0605 10.7045 13.8447C11.4497 13.8676 12.1912 13.879 12.9364 13.879C18.0175 13.879 23.0985 13.334 28.1795 11.8972L28.1833 11.901Z" fill="#8492A5"/>
<path d="M58.4058 24.0217V19.796H47.5403L57.6907 13.4159V9.38348H39.8934V13.6093H49.3286L39.1782 19.9893V24.0217H58.4058Z" fill="#8492A5"/>
<path d="M79.8977 19.2992H73.6811C73.1307 20.1278 72.4156 20.404 69.6925 20.404C66.694 20.404 65.6489 20.1002 65.5663 17.6973H80.0076V16.2058C80.0076 10.7372 76.7618 9.10767 69.8023 9.10767H69.3622C62.4027 9.10767 59.377 10.7372 59.377 16.2058V17.2001C59.377 22.6688 62.4027 24.2983 69.3622 24.2983H69.8572C76.9269 24.2983 79.1 22.9173 79.8977 19.2992ZM69.6925 12.643C72.5807 12.643 73.8186 13.0849 73.8186 14.8525V14.963H65.5936C65.7864 12.9468 66.9417 12.643 69.6925 12.643Z" fill="#8492A5"/>
<path d="M101.621 24.0221V15.3496C101.621 10.5715 99.613 9.10767 92.4611 9.10767H91.9384C85.0615 9.10767 82.9433 10.7924 81.9255 13.8582H88.3627C88.8024 13.0296 89.518 12.6706 91.8286 12.6706C94.5517 12.6706 95.432 13.0849 95.432 14.7696V14.9906L86.4646 15.2944C83.2736 15.4049 81.293 16.482 81.293 19.3544V19.5754C81.293 22.6964 83.3835 24.2983 88.4176 24.2983C92.4888 24.2983 94.524 23.2764 95.2668 21.4259H95.432V24.0221H101.621ZM87.5373 19.4649V19.3544C87.5373 18.4982 88.1426 18.1392 89.6555 18.084L95.432 17.8906V18.084C95.432 19.9068 93.5888 20.9564 90.563 20.9564C88.3623 20.9564 87.5373 20.5421 87.5373 19.4649Z" fill="#8492A5"/>
<path d="M109.6 24.0217V4.68817H103.411V24.0217H109.6Z" fill="#8492A5"/>
<path d="M121.801 28.717L131.841 9.38348H125.514L121.553 18.0836H121.361L117.234 9.38348H110.578L118.032 24.1046L115.309 28.717H121.801Z" fill="#8492A5"/>
</g>
<defs>
<clipPath id="clip0_16179_1395">
<rect width="131.171" height="31.5135" fill="white" transform="translate(0.669922 0.945923)"/>
</clipPath>
</defs>
</svg>
